<svg width="128" height="29" viewBox="0 0 128 29" fill="none" xmlns="http://www.w3.org/2000/svg">
<g clip-path="url(#clip0_407_359)">
<path fill-rule="evenodd" clip-rule="evenodd" d="M13.4708 0.0598866C17.3522 -0.0358759 20.7286 1.20696 23.5997 3.78844C26.278 6.33441 27.7701 9.46294 28.0754 13.1741C28.1686 14.5047 28.0705 15.8207 27.7811 17.122C24.6961 15.9547 21.5412 15.7203 18.3164 16.4186C15.1063 17.1527 12.3564 18.688 10.0668 21.0245C11.1226 17.0805 10.8105 13.2485 9.13089 9.52874C8.06505 7.25056 6.55803 5.31696 4.60986 3.72793C6.78144 1.763 9.32743 0.578133 12.2481 0.173331C12.6568 0.122841 13.0644 0.085026 13.4708 0.0598866Z" fill="url(#paint0_linear_407_359)"/>
<path fill-rule="evenodd" clip-rule="evenodd" d="M3.59664 4.72095C3.64734 4.73885 3.69258 4.76657 3.73238 4.80412C6.66497 7.25802 8.4522 10.3858 9.09408 14.1874C9.46284 16.5872 9.27175 18.9413 8.52096 21.2494C8.72864 17.2984 7.69811 13.7145 5.42912 10.4976C4.44832 9.15126 3.29453 7.97423 1.96777 6.96657C2.44253 6.1683 2.98549 5.41975 3.59664 4.72095Z" fill="url(#paint1_linear_407_359)"/>
<path fill-rule="evenodd" clip-rule="evenodd" d="M1.31972 8.20651C3.48897 9.88731 5.08839 11.9998 6.11797 14.544C7.37726 17.7759 7.53341 21.0604 6.58646 24.3974C6.5233 24.6042 6.45782 24.8105 6.39 25.016C6.59737 21.1556 5.61505 17.6348 3.44304 14.4535C2.55923 13.2062 1.52401 12.0946 0.337402 11.1188C0.565542 10.1135 0.892987 9.14265 1.31972 8.20651Z" fill="url(#paint2_linear_407_359)"/>
<path fill-rule="evenodd" clip-rule="evenodd" d="M0.0602456 12.7603C2.34473 14.8507 3.8569 17.411 4.59675 20.4411C4.94075 21.8912 5.06655 23.3601 4.97416 24.8474C2.55959 22.7735 1.00465 20.1731 0.309338 17.0458C0.0121029 15.6298 -0.0709279 14.2012 0.0602456 12.7603Z" fill="url(#paint3_linear_407_359)"/>
<path fill-rule="evenodd" clip-rule="evenodd" d="M21.4527 17.3751C23.5132 17.3241 25.5022 17.674 27.4198 18.4247C27.4268 18.4309 27.4318 18.4384 27.4349 18.4473C27.1422 19.3347 26.7669 20.1855 26.3095 20.9995C23.7726 19.9069 21.1265 19.4765 18.3709 19.7083C15.5921 19.9614 13.039 20.8472 10.7119 22.3662C10.7017 22.3763 10.6918 22.3763 10.6816 22.3662C12.9556 19.8723 15.7605 18.2966 19.0961 17.6394C19.8777 17.4953 20.6632 17.4071 21.4527 17.3751Z" fill="url(#paint4_linear_407_359)"/>
<path fill-rule="evenodd" clip-rule="evenodd" d="M19.2388 21.032C21.4184 20.9646 23.5133 21.3508 25.5235 22.1906C24.9392 23.0307 24.2659 23.798 23.5039 24.4927C20.0287 23.1978 16.507 23.0615 12.9391 24.0838C11.3387 24.5624 9.84668 25.2642 8.463 26.189C8.45295 26.1992 8.44291 26.1992 8.43286 26.189C10.7413 23.587 13.6099 21.9513 17.0385 21.2819C17.7688 21.1501 18.5023 21.0668 19.2388 21.032Z" fill="url(#paint5_linear_407_359)"/>
<path fill-rule="evenodd" clip-rule="evenodd" d="M17.3039 24.7938C18.9995 24.7624 20.6523 25.0092 22.2627 25.5345C19.6441 27.3798 16.7263 28.254 13.5092 28.1571C12.0534 28.1001 10.6422 27.8204 9.27612 27.3181C11.7111 25.723 14.387 24.8815 17.3039 24.7938Z" fill="url(#paint6_linear_407_359)"/>
</g>
<path d="M38.2584 6.52365V8.93411H42.1573V11.1748H38.2584V13.789H42.6681V16.1146H35.3469V4.19806H42.6681V6.52365H38.2584Z" fill="#051B2E"/>
<path d="M49.036 4.19806C50.296 4.19806 51.397 4.44702 52.3391 4.94496C53.2812 5.4429 54.0076 6.14453 54.5184 7.04987C55.0405 7.9439 55.3016 8.97938 55.3016 10.1563C55.3016 11.3219 55.0405 12.3574 54.5184 13.2628C54.0076 14.1681 53.2755 14.8697 52.322 15.3677C51.3799 15.8656 50.2846 16.1146 49.036 16.1146H44.5582V4.19806H49.036ZM48.8488 13.6023C49.9498 13.6023 50.8067 13.3024 51.4197 12.7026C52.0326 12.1028 52.3391 11.254 52.3391 10.1563C52.3391 9.05859 52.0326 8.20418 51.4197 7.59308C50.8067 6.98197 49.9498 6.67642 48.8488 6.67642H47.4697V13.6023H48.8488Z" fill="#051B2E"/>
<path d="M65.5267 4.19806V6.52365H62.3599V16.1146H59.4485V6.52365H56.2816V4.19806H65.5267Z" fill="#051B2E"/>
<path d="M69.8993 6.52365V8.93411H73.7983V11.1748H69.8993V13.789H74.309V16.1146H66.9879V4.19806H74.309V6.52365H69.8993Z" fill="#051B2E"/>
<path d="M75.7054 10.1393C75.7054 8.9624 75.9608 7.9156 76.4716 6.99895C76.9824 6.07098 77.6918 5.35236 78.5998 4.84311C79.5192 4.32254 80.5578 4.06226 81.7156 4.06226C83.1344 4.06226 84.3489 4.43571 85.3591 5.18261C86.3693 5.92952 87.0447 6.94802 87.3852 8.23813H84.1843C83.946 7.74019 83.6055 7.36108 83.1628 7.1008C82.7315 6.84051 82.2377 6.71037 81.6815 6.71037C80.7848 6.71037 80.0584 7.02158 79.5022 7.644C78.946 8.26642 78.6679 9.0982 78.6679 10.1393C78.6679 11.1805 78.946 12.0123 79.5022 12.6347C80.0584 13.2571 80.7848 13.5683 81.6815 13.5683C82.2377 13.5683 82.7315 13.4382 83.1628 13.1779C83.6055 12.9176 83.946 12.5385 84.1843 12.0406H87.3852C87.0447 13.3307 86.3693 14.3492 85.3591 15.0961C84.3489 15.8317 83.1344 16.1995 81.7156 16.1995C80.5578 16.1995 79.5192 15.9448 78.5998 15.4356C77.6918 14.915 76.9824 14.1964 76.4716 13.2797C75.9608 12.3631 75.7054 11.3163 75.7054 10.1393Z" fill="#051B2E"/>
<path d="M99.5199 4.19806V16.1146H96.6085V11.2088H92.0796V16.1146H89.1682V4.19806H92.0796V8.86621H96.6085V4.19806H99.5199Z" fill="#051B2E"/>
<path d="M108.943 8.95108V11.3615H101.451V8.95108H108.943Z" fill="#051B2E"/>
<path d="M114.41 4.19806V16.1146H111.498V4.19806H114.41Z" fill="#051B2E"/>
<path d="M120.997 4.19806C122.257 4.19806 123.358 4.44702 124.3 4.94496C125.242 5.4429 125.969 6.14453 126.48 7.04987C127.002 7.9439 127.263 8.97938 127.263 10.1563C127.263 11.3219 127.002 12.3574 126.48 13.2628C125.969 14.1681 125.237 14.8697 124.283 15.3677C123.341 15.8656 122.246 16.1146 120.997 16.1146H116.519V4.19806H120.997ZM120.81 13.6023C121.911 13.6023 122.768 13.3024 123.381 12.7026C123.994 12.1028 124.3 11.254 124.3 10.1563C124.3 9.05859 123.994 8.20418 123.381 7.59308C122.768 6.98197 121.911 6.67642 120.81 6.67642H119.431V13.6023H120.81Z" fill="#051B2E"/>
<path d="M41.4197 19.5098V20.4001H40.2074V24.0716H39.0929V20.4001H37.8806V19.5098H41.4197Z" fill="#051B2E"/>
<path d="M43.0936 20.4001V21.3229H44.5862V22.1806H43.0936V23.1814H44.7817V24.0716H41.9791V19.5098H44.7817V20.4001H43.0936Z" fill="#051B2E"/>
<path d="M48.158 24.0716L46.6198 22.0572V24.0716H45.5053V19.5098H46.6198V21.5113L48.145 19.5098H49.4551L47.6822 21.7452L49.5202 24.0716H48.158Z" fill="#051B2E"/>
<path d="M54.143 24.0716H53.0285L51.1644 21.2579V24.0716H50.0499V19.5098H51.1644L53.0285 22.3366V19.5098H54.143V24.0716Z" fill="#051B2E"/>
<path d="M57.1148 24.1171C56.6847 24.1171 56.2892 24.0175 55.9286 23.8182C55.5723 23.6189 55.2877 23.3417 55.0748 22.9864C54.8662 22.6268 54.7619 22.224 54.7619 21.7777C54.7619 21.3315 54.8662 20.9308 55.0748 20.5756C55.2877 20.2203 55.5723 19.9431 55.9286 19.7438C56.2892 19.5445 56.6847 19.4449 57.1148 19.4449C57.545 19.4449 57.9382 19.5445 58.2945 19.7438C58.6552 19.9431 58.9376 20.2203 59.1418 20.5756C59.3504 20.9308 59.4547 21.3315 59.4547 21.7777C59.4547 22.224 59.3504 22.6268 59.1418 22.9864C58.9333 23.3417 58.6508 23.6189 58.2945 23.8182C57.9382 24.0175 57.545 24.1171 57.1148 24.1171ZM57.1148 23.1034C57.4798 23.1034 57.7709 22.9821 57.9882 22.7395C58.2098 22.4969 58.3206 22.1763 58.3206 21.7777C58.3206 21.3748 58.2098 21.0543 57.9882 20.816C57.7709 20.5734 57.4798 20.4521 57.1148 20.4521C56.7455 20.4521 56.45 20.5712 56.2284 20.8095C56.0112 21.0478 55.9025 21.3705 55.9025 21.7777C55.9025 22.1806 56.0112 22.5034 56.2284 22.746C56.45 22.9842 56.7455 23.1034 57.1148 23.1034Z" fill="#051B2E"/>
<path d="M61.1893 23.2139H62.6493V24.0716H60.0747V19.5098H61.1893V23.2139Z" fill="#051B2E"/>
<path d="M65.3447 24.1171C64.9146 24.1171 64.5192 24.0175 64.1585 23.8182C63.8022 23.6189 63.5176 23.3417 63.3047 22.9864C63.0961 22.6268 62.9918 22.224 62.9918 21.7777C62.9918 21.3315 63.0961 20.9308 63.3047 20.5756C63.5176 20.2203 63.8022 19.9431 64.1585 19.7438C64.5192 19.5445 64.9146 19.4449 65.3447 19.4449C65.7749 19.4449 66.1682 19.5445 66.5245 19.7438C66.8851 19.9431 67.1675 20.2203 67.3718 20.5756C67.5803 20.9308 67.6846 21.3315 67.6846 21.7777C67.6846 22.224 67.5803 22.6268 67.3718 22.9864C67.1632 23.3417 66.8808 23.6189 66.5245 23.8182C66.1682 24.0175 65.7749 24.1171 65.3447 24.1171ZM65.3447 23.1034C65.7097 23.1034 66.0009 22.9821 66.2181 22.7395C66.4397 22.4969 66.5505 22.1763 66.5505 21.7777C66.5505 21.3748 66.4397 21.0543 66.2181 20.816C66.0009 20.5734 65.7097 20.4521 65.3447 20.4521C64.9754 20.4521 64.6799 20.5712 64.4583 20.8095C64.2411 21.0478 64.1324 21.3705 64.1324 21.7777C64.1324 22.1806 64.2411 22.5034 64.4583 22.746C64.6799 22.9842 64.9754 23.1034 65.3447 23.1034Z" fill="#051B2E"/>
<path d="M71.3419 20.9525C71.2594 20.8008 71.1399 20.686 70.9835 20.608C70.8314 20.5257 70.6511 20.4846 70.4425 20.4846C70.0818 20.4846 69.7929 20.6037 69.5756 20.842C69.3584 21.0759 69.2497 21.39 69.2497 21.7842C69.2497 22.2045 69.3627 22.5337 69.5887 22.772C69.819 23.0059 70.134 23.1229 70.5337 23.1229C70.8075 23.1229 71.0378 23.0536 71.2246 22.9149C71.4158 22.7763 71.5548 22.577 71.6418 22.3171H70.2274V21.4983H72.652V22.5315C72.5694 22.8088 72.4282 23.0666 72.2283 23.3048C72.0328 23.5431 71.783 23.7359 71.4788 23.8832C71.1746 24.0305 70.8314 24.1041 70.449 24.1041C69.9971 24.1041 69.593 24.0066 69.2367 23.8117C68.8847 23.6124 68.6088 23.3373 68.4089 22.9864C68.2134 22.6355 68.1157 22.2348 68.1157 21.7842C68.1157 21.3337 68.2134 20.933 68.4089 20.5821C68.6088 20.2268 68.8847 19.9517 69.2367 19.7568C69.5887 19.5575 69.9906 19.4579 70.4425 19.4579C70.99 19.4579 71.4506 19.59 71.8242 19.8542C72.2023 20.1185 72.4521 20.4846 72.5738 20.9525H71.3419Z" fill="#051B2E"/>
<path d="M74.3839 19.5098V24.0716H73.2693V19.5098H74.3839Z" fill="#051B2E"/>
<path d="M80.0598 20.9784C80.0598 21.2427 79.9989 21.4853 79.8773 21.7063C79.7556 21.9229 79.5688 22.0983 79.3167 22.2326C79.0647 22.3669 78.7519 22.4341 78.3782 22.4341H77.6873V24.0716H76.5728V19.5098H78.3782C78.7432 19.5098 79.0517 19.5727 79.3037 19.6983C79.5557 19.8239 79.7447 19.9972 79.8708 20.2181C79.9968 20.4391 80.0598 20.6925 80.0598 20.9784ZM78.2935 21.5503C78.5064 21.5503 78.665 21.5005 78.7693 21.4008C78.8735 21.3012 78.9257 21.1604 78.9257 20.9784C78.9257 20.7965 78.8735 20.6557 78.7693 20.5561C78.665 20.4564 78.5064 20.4066 78.2935 20.4066H77.6873V21.5503H78.2935Z" fill="#051B2E"/>
<path d="M81.7545 20.4001V21.3229H83.2471V22.1806H81.7545V23.1814H83.4426V24.0716H80.64V19.5098H83.4426V20.4001H81.7545Z" fill="#051B2E"/>
<path d="M88.2593 24.0716H87.1448L85.2807 21.2579V24.0716H84.1662V19.5098H85.2807L87.1448 22.3366V19.5098H88.2593V24.0716Z" fill="#051B2E"/>
<path d="M90.7814 19.5098C91.2637 19.5098 91.6852 19.6051 92.0458 19.7958C92.4065 19.9864 92.6846 20.255 92.8801 20.6015C93.08 20.9438 93.1799 21.3402 93.1799 21.7907C93.1799 22.2369 93.08 22.6333 92.8801 22.9799C92.6846 23.3265 92.4043 23.5951 92.0393 23.7857C91.6787 23.9763 91.2594 24.0716 90.7814 24.0716H89.0672V19.5098H90.7814ZM90.7097 23.1099C91.1312 23.1099 91.4592 22.9951 91.6939 22.7655C91.9285 22.5359 92.0458 22.211 92.0458 21.7907C92.0458 21.3705 91.9285 21.0434 91.6939 20.8095C91.4592 20.5756 91.1312 20.4586 90.7097 20.4586H90.1818V23.1099H90.7097Z" fill="#051B2E"/>
<path d="M94.9173 19.5098V24.0716H93.8028V19.5098H94.9173Z" fill="#051B2E"/>
<path d="M97.4392 19.5098C97.9215 19.5098 98.343 19.6051 98.7036 19.7958C99.0643 19.9864 99.3424 20.255 99.5379 20.6015C99.7378 20.9438 99.8377 21.3402 99.8377 21.7907C99.8377 22.2369 99.7378 22.6333 99.5379 22.9799C99.3424 23.3265 99.0621 23.5951 98.6971 23.7857C98.3364 23.9763 97.9171 24.0716 97.4392 24.0716H95.725V19.5098H97.4392ZM97.3675 23.1099C97.789 23.1099 98.117 22.9951 98.3517 22.7655C98.5863 22.5359 98.7036 22.211 98.7036 21.7907C98.7036 21.3705 98.5863 21.0434 98.3517 20.8095C98.117 20.5756 97.789 20.4586 97.3675 20.4586H96.8395V23.1099H97.3675Z" fill="#051B2E"/>
<path d="M101.575 19.5098V24.0716H100.461V19.5098H101.575Z" fill="#051B2E"/>
<path d="M105.035 24.0716L103.497 22.0572V24.0716H102.383V19.5098H103.497V21.5113L105.022 19.5098H106.333L104.56 21.7452L106.398 24.0716H105.035Z" fill="#051B2E"/>
<path d="M109.776 23.2658H108.068L107.794 24.0716H106.628L108.283 19.5098H109.574L111.229 24.0716H110.049L109.776 23.2658ZM109.489 22.4081L108.922 20.738L108.361 22.4081H109.489Z" fill="#051B2E"/>
<path d="M115.826 24.0716H114.712L112.847 21.2579V24.0716H111.733V19.5098H112.847L114.712 22.3366V19.5098H115.826V24.0716Z" fill="#051B2E"/>
<path d="M119.13 19.5098V24.0716H118.015V19.5098H119.13Z" fill="#051B2E"/>
<path d="M121.652 19.5098C122.134 19.5098 122.555 19.6051 122.916 19.7958C123.277 19.9864 123.555 20.255 123.75 20.6015C123.95 20.9438 124.05 21.3402 124.05 21.7907C124.05 22.2369 123.95 22.6333 123.75 22.9799C123.555 23.3265 123.274 23.5951 122.909 23.7857C122.549 23.9763 122.13 24.0716 121.652 24.0716H119.937V19.5098H121.652ZM121.58 23.1099C122.001 23.1099 122.329 22.9951 122.564 22.7655C122.799 22.5359 122.916 22.211 122.916 21.7907C122.916 21.3705 122.799 21.0434 122.564 20.8095C122.329 20.5756 122.001 20.4586 121.58 20.4586H121.052V23.1099H121.58Z" fill="#051B2E"/>
<defs>
<linearGradient id="paint0_linear_407_359" x1="23.3027" y1="4.13063" x2="-21.8693" y2="4.13063" gradientUnits="userSpaceOnUse">
<stop stop-color="#62ACED"/>
<stop offset="1" stop-color="#10528B"/>
</linearGradient>
<linearGradient id="paint1_linear_407_359" x1="1.96777" y1="13.7886" x2="32.2418" y2="13.7886" gradientUnits="userSpaceOnUse">
<stop stop-color="#FFDE67"/>
<stop offset="1" stop-color="#FFA600"/>
</linearGradient>
<linearGradient id="paint2_linear_407_359" x1="0.337402" y1="17.4284" x2="21.1947" y2="17.4284" gradientUnits="userSpaceOnUse">
<stop stop-color="#FFDE67"/>
<stop offset="1" stop-color="#FFA600"/>
</linearGradient>
<linearGradient id="paint3_linear_407_359" x1="0" y1="19.3914" x2="21.1384" y2="19.3914" gradientUnits="userSpaceOnUse">
<stop stop-color="#FFDE67"/>
<stop offset="1" stop-color="#FFA600"/>
</linearGradient>
<linearGradient id="paint4_linear_407_359" x1="27.4349" y1="19.8776" x2="-13.1834" y2="19.8774" gradientUnits="userSpaceOnUse">
<stop stop-color="#38E58C"/>
<stop offset="1" stop-color="#0D6437"/>
</linearGradient>
<linearGradient id="paint5_linear_407_359" x1="25.5235" y1="23.6163" x2="-16.163" y2="23.6161" gradientUnits="userSpaceOnUse">
<stop stop-color="#38E58C"/>
<stop offset="1" stop-color="#0D6437"/>
</linearGradient>
<linearGradient id="paint6_linear_407_359" x1="22.2627" y1="26.4815" x2="-12.5369" y2="26.4813" gradientUnits="userSpaceOnUse">
<stop stop-color="#38E58C"/>
<stop offset="1" stop-color="#0D6437"/>
</linearGradient>
<clipPath id="clip0_407_359">
<rect width="28.1096" height="28.1096" fill="white" transform="translate(0 0.0547485)"/>
</clipPath>
</defs>
</svg>
