<svg width="338" height="96" viewBox="0 0 338 96" fill="none" xmlns="http://www.w3.org/2000/svg">
<path d="M0.0864868 72.944V20.72H29.3665V31.952H12.6625V72.944H0.0864868Z" fill="#10528B"/>
<path d="M61.042 74.096C55.666 74.096 50.962 72.88 46.93 70.448C42.898 68.016 39.762 64.72 37.522 60.56C35.282 56.4 34.162 51.792 34.162 46.736C34.162 41.488 35.282 36.848 37.522 32.816C39.826 28.72 42.93 25.488 46.834 23.12C50.802 20.752 55.218 19.568 60.082 19.568C64.178 19.568 67.762 20.24 70.834 21.584C73.97 22.928 76.626 24.784 78.802 27.152C80.978 29.52 82.642 32.24 83.794 35.312C84.946 38.32 85.522 41.584 85.522 45.104C85.522 46 85.458 46.928 85.33 47.888C85.266 48.848 85.106 49.68 84.85 50.384H44.53V40.784H77.746L71.794 45.296C72.37 42.352 72.21 39.728 71.314 37.424C70.482 35.12 69.074 33.296 67.09 31.952C65.17 30.608 62.834 29.936 60.082 29.936C57.458 29.936 55.122 30.608 53.074 31.952C51.026 33.232 49.458 35.152 48.37 37.712C47.346 40.208 46.962 43.248 47.218 46.832C46.962 50.032 47.378 52.88 48.466 55.376C49.618 57.808 51.282 59.696 53.458 61.04C55.698 62.384 58.258 63.056 61.138 63.056C64.018 63.056 66.45 62.448 68.434 61.232C70.482 60.016 72.082 58.384 73.234 56.336L83.41 61.328C82.386 63.824 80.786 66.032 78.61 67.952C76.434 69.872 73.842 71.376 70.834 72.464C67.89 73.552 64.626 74.096 61.042 74.096Z" fill="#10528B"/>
<path d="M119.343 74.096C114.287 74.096 109.775 72.912 105.807 70.544C101.839 68.112 98.7032 64.816 96.3992 60.656C94.0952 56.496 92.9432 51.888 92.9432 46.832C92.9432 41.712 94.0952 37.104 96.3992 33.008C98.7032 28.912 101.839 25.648 105.807 23.216C109.839 20.784 114.319 19.568 119.247 19.568C123.215 19.568 126.735 20.368 129.807 21.968C132.943 23.504 135.407 25.68 137.199 28.496L135.279 31.088V0.272003H147.855V72.944H135.951V62.864L137.295 65.36C135.503 68.176 133.007 70.352 129.807 71.888C126.607 73.36 123.119 74.096 119.343 74.096ZM120.687 62.576C123.567 62.576 126.095 61.904 128.271 60.56C130.447 59.216 132.143 57.36 133.359 54.992C134.639 52.624 135.279 49.904 135.279 46.832C135.279 43.824 134.639 41.136 133.359 38.768C132.143 36.336 130.447 34.448 128.271 33.104C126.095 31.76 123.567 31.088 120.687 31.088C117.871 31.088 115.343 31.792 113.103 33.2C110.863 34.544 109.103 36.4 107.823 38.768C106.607 41.072 105.999 43.76 105.999 46.832C105.999 49.904 106.607 52.624 107.823 54.992C109.103 57.36 110.863 59.216 113.103 60.56C115.343 61.904 117.871 62.576 120.687 62.576Z" fill="#10528B"/>
<path d="M175.395 74.096C171.747 74.096 168.579 73.488 165.891 72.272C163.203 71.056 161.123 69.328 159.651 67.088C158.179 64.784 157.443 62.128 157.443 59.12C157.443 56.24 158.083 53.68 159.363 51.44C160.643 49.136 162.627 47.216 165.315 45.68C168.003 44.144 171.395 43.056 175.491 42.416L192.579 39.632V49.232L177.891 51.728C175.395 52.176 173.539 52.976 172.323 54.128C171.107 55.28 170.499 56.784 170.499 58.64C170.499 60.432 171.171 61.872 172.515 62.96C173.923 63.984 175.651 64.496 177.699 64.496C180.323 64.496 182.627 63.952 184.611 62.864C186.659 61.712 188.227 60.144 189.315 58.16C190.467 56.176 191.043 54 191.043 51.632V31.952H162.915V20.72H203.619V72.944H191.715V64.016L194.403 63.824C193.059 66.064 191.459 67.952 189.603 69.488C187.747 70.96 185.635 72.112 183.267 72.944C180.899 73.712 178.275 74.096 175.395 74.096Z" fill="#10528B"/>
<path d="M249.323 72.944L233.867 50.864L234.539 40.688L247.403 20.72H261.419L245.291 46.256L263.723 72.944H249.323ZM215.243 72.944V0.272003H227.819V72.944H215.243ZM223.019 51.344V40.112H241.355V51.344H223.019Z" fill="#10528B"/>
<path d="M290.521 74.096C284.953 74.096 280.089 72.784 275.929 70.16C271.833 67.472 269.017 63.856 267.481 59.312L276.889 54.8C278.233 57.744 280.089 60.048 282.457 61.712C284.889 63.376 287.577 64.208 290.521 64.208C292.825 64.208 294.649 63.696 295.993 62.672C297.337 61.648 298.009 60.304 298.009 58.64C298.009 57.616 297.721 56.784 297.145 56.144C296.633 55.44 295.897 54.864 294.937 54.416C294.041 53.904 293.049 53.488 291.961 53.168L283.417 50.768C279.001 49.488 275.641 47.536 273.337 44.912C271.097 42.288 269.977 39.184 269.977 35.6C269.977 32.4 270.777 29.616 272.377 27.248C274.041 24.816 276.313 22.928 279.193 21.584C282.137 20.24 285.497 19.568 289.273 19.568C294.201 19.568 298.553 20.752 302.329 23.12C306.105 25.488 308.793 28.816 310.393 33.104L300.793 37.616C299.897 35.248 298.393 33.36 296.281 31.952C294.169 30.544 291.801 29.84 289.177 29.84C287.065 29.84 285.401 30.32 284.185 31.28C282.969 32.24 282.361 33.488 282.361 35.024C282.361 35.984 282.617 36.816 283.129 37.52C283.641 38.224 284.345 38.8 285.241 39.248C286.201 39.696 287.289 40.112 288.505 40.496L296.857 42.992C301.145 44.272 304.441 46.192 306.745 48.752C309.113 51.312 310.297 54.448 310.297 58.16C310.297 61.296 309.465 64.08 307.801 66.512C306.137 68.88 303.833 70.736 300.889 72.08C297.945 73.424 294.489 74.096 290.521 74.096Z" fill="#10528B"/>
<path d="M325.337 72.944V31.952H317.082V20.72H337.914V72.944H325.337ZM325.337 14.864V1.424H337.914V14.864H325.337Z" fill="#10528B"/>
<path d="M10.477 92.4C9.71969 92.4 9.03703 92.256 8.42903 91.968C7.83169 91.68 7.33036 91.3013 6.92503 90.832C6.53036 90.3627 6.24769 89.856 6.07703 89.312L7.00503 88.976C7.30369 89.7867 7.74636 90.4053 8.33303 90.832C8.93036 91.2587 9.63969 91.472 10.461 91.472C11.005 91.472 11.4797 91.3813 11.885 91.2C12.301 91.0187 12.6264 90.7627 12.861 90.432C13.0957 90.1013 13.213 89.712 13.213 89.264C13.213 88.6453 13.037 88.1653 12.685 87.824C12.3437 87.4827 11.8957 87.2373 11.341 87.088L9.16503 86.448C8.27969 86.192 7.62369 85.7813 7.19703 85.216C6.78103 84.64 6.57303 83.9893 6.57303 83.264C6.57303 82.6347 6.72236 82.0853 7.02103 81.616C7.33036 81.136 7.74636 80.7627 8.26903 80.496C8.79169 80.2293 9.38369 80.096 10.045 80.096C10.7384 80.096 11.357 80.2293 11.901 80.496C12.4557 80.752 12.9197 81.0933 13.293 81.52C13.677 81.936 13.949 82.4 14.109 82.912L13.197 83.248C12.9304 82.512 12.5197 81.9573 11.965 81.584C11.4104 81.2 10.7757 81.008 10.061 81.008C9.59169 81.008 9.17036 81.0987 8.79703 81.28C8.42369 81.4613 8.13036 81.7173 7.91703 82.048C7.70369 82.3787 7.59703 82.768 7.59703 83.216C7.59703 83.76 7.75169 84.224 8.06103 84.608C8.37036 84.992 8.88769 85.296 9.61303 85.52L11.565 86.096C12.4184 86.352 13.0744 86.7467 13.533 87.28C14.0024 87.8027 14.237 88.448 14.237 89.216C14.237 89.8453 14.077 90.4 13.757 90.88C13.437 91.3493 12.989 91.7227 12.413 92C11.8477 92.2667 11.2024 92.4 10.477 92.4Z" fill="#424242"/>
<path d="M19.8623 92.4C19.2436 92.4 18.6836 92.2667 18.1823 92C17.6809 91.7333 17.2809 91.3547 16.9823 90.864C16.6836 90.3733 16.5343 89.792 16.5343 89.12V83.712H17.4943V89.072C17.4943 89.5733 17.6009 90.0053 17.8143 90.368C18.0276 90.72 18.3103 90.992 18.6623 91.184C19.0249 91.3653 19.4249 91.456 19.8623 91.456C20.3103 91.456 20.7103 91.3653 21.0623 91.184C21.4249 90.992 21.7129 90.72 21.9263 90.368C22.1396 90.0053 22.2463 89.5733 22.2463 89.072V83.712H23.2063V89.12C23.2063 89.792 23.0569 90.3733 22.7583 90.864C22.4596 91.3547 22.0596 91.7333 21.5583 92C21.0569 92.2667 20.4916 92.4 19.8623 92.4Z" fill="#424242"/>
<path d="M25.8665 92.208V83.712H26.8265V85.296L26.6505 85.152C26.8319 84.672 27.1412 84.2933 27.5785 84.016C28.0265 83.7387 28.5545 83.6 29.1625 83.6H29.7065V84.56H29.0505C28.3572 84.56 27.8132 84.784 27.4185 85.232C27.0239 85.6693 26.8265 86.2613 26.8265 87.008V92.208H25.8665Z" fill="#424242"/>
<path d="M33.7204 92.4C33.1871 92.4 32.7124 92.2987 32.2964 92.096C31.8804 91.8933 31.5497 91.6107 31.3044 91.248C31.0591 90.8853 30.9364 90.4693 30.9364 90C30.9364 89.584 31.0271 89.1947 31.2084 88.832C31.3897 88.4693 31.6831 88.16 32.0884 87.904C32.4937 87.6373 33.0217 87.4507 33.6724 87.344L37.1124 86.768V87.664L33.9284 88.192C33.2031 88.3093 32.6911 88.528 32.3924 88.848C32.0937 89.168 31.9444 89.5413 31.9444 89.968C31.9444 90.4267 32.1151 90.8 32.4564 91.088C32.8084 91.376 33.2511 91.52 33.7844 91.52C34.4031 91.52 34.9417 91.3813 35.4004 91.104C35.8591 90.816 36.2164 90.4427 36.4724 89.984C36.7284 89.5147 36.8564 89.0027 36.8564 88.448V86.896C36.8564 86.2027 36.6537 85.6533 36.2484 85.248C35.8431 84.832 35.2937 84.624 34.6004 84.624H31.7044V83.712H34.6004C35.2617 83.712 35.8324 83.84 36.3124 84.096C36.7924 84.352 37.1604 84.72 37.4164 85.2C37.6831 85.6693 37.8164 86.2347 37.8164 86.896V92.208H36.8564V90.432L36.9684 90.512C36.8297 90.8533 36.6004 91.168 36.2804 91.456C35.9604 91.7333 35.5817 91.9627 35.1444 92.144C34.7177 92.3147 34.2431 92.4 33.7204 92.4Z" fill="#424242"/>
<path d="M43.392 92.304C42.688 92.304 42.144 92.1067 41.76 91.712C41.376 91.3067 41.184 90.72 41.184 89.952V84.624H39.584V83.712H40.192C40.512 83.712 40.7574 83.616 40.928 83.424C41.0987 83.232 41.184 82.9707 41.184 82.64V81.728H42.144V83.712H44V84.624H42.144V89.952C42.144 90.1867 42.176 90.416 42.24 90.64C42.3147 90.864 42.4534 91.0453 42.656 91.184C42.8587 91.3227 43.152 91.392 43.536 91.392C43.6214 91.392 43.7227 91.3867 43.84 91.376C43.968 91.3653 44.0694 91.3547 44.144 91.344V92.208C44.0267 92.24 43.8934 92.2613 43.744 92.272C43.5947 92.2933 43.4774 92.304 43.392 92.304Z" fill="#424242"/>
<path d="M58.2373 92.304C57.9279 92.304 57.6559 92.2773 57.4213 92.224C57.1866 92.1707 56.9626 92.0693 56.7493 91.92C56.5359 91.7707 56.3066 91.552 56.0613 91.264C55.8159 90.9653 55.5226 90.5813 55.1813 90.112L52.3813 86.144L50.3013 88.48V92.208H49.2613V80.288H50.3013V87.44L49.9973 87.296L56.2693 80.288H57.6133L52.7813 85.712L52.8293 84.976L56.4293 90.064C56.6426 90.3733 56.8293 90.624 56.9893 90.816C57.1599 91.008 57.3413 91.152 57.5333 91.248C57.7253 91.3333 57.9599 91.376 58.2373 91.376H58.4613V92.304H58.2373Z" fill="#424242"/>
<path d="M62.3142 92.4C61.7808 92.4 61.3061 92.2987 60.8901 92.096C60.4741 91.8933 60.1435 91.6107 59.8982 91.248C59.6528 90.8853 59.5302 90.4693 59.5302 90C59.5302 89.584 59.6208 89.1947 59.8022 88.832C59.9835 88.4693 60.2768 88.16 60.6821 87.904C61.0875 87.6373 61.6155 87.4507 62.2662 87.344L65.7062 86.768V87.664L62.5221 88.192C61.7968 88.3093 61.2848 88.528 60.9861 88.848C60.6875 89.168 60.5382 89.5413 60.5382 89.968C60.5382 90.4267 60.7088 90.8 61.0501 91.088C61.4021 91.376 61.8448 91.52 62.3782 91.52C62.9968 91.52 63.5355 91.3813 63.9941 91.104C64.4528 90.816 64.8102 90.4427 65.0662 89.984C65.3222 89.5147 65.4501 89.0027 65.4501 88.448V86.896C65.4501 86.2027 65.2475 85.6533 64.8422 85.248C64.4368 84.832 63.8875 84.624 63.1941 84.624H60.2981V83.712H63.1941C63.8555 83.712 64.4262 83.84 64.9062 84.096C65.3862 84.352 65.7542 84.72 66.0102 85.2C66.2768 85.6693 66.4101 86.2347 66.4101 86.896V92.208H65.4501V90.432L65.5621 90.512C65.4235 90.8533 65.1941 91.168 64.8741 91.456C64.5541 91.7333 64.1755 91.9627 63.7381 92.144C63.3115 92.3147 62.8368 92.4 62.3142 92.4Z" fill="#424242"/>
<path d="M73.31 92.4C72.5314 92.4 71.8327 92.2133 71.214 91.84C70.606 91.456 70.1527 90.9333 69.854 90.272L70.014 90.048V92.208H69.054V80.096H70.014V85.856L69.854 85.552C70.174 84.9333 70.6327 84.4427 71.23 84.08C71.838 83.7067 72.5314 83.52 73.31 83.52C74.11 83.52 74.8247 83.712 75.454 84.096C76.0834 84.48 76.5794 85.008 76.942 85.68C77.3047 86.352 77.486 87.1093 77.486 87.952C77.486 88.7947 77.3047 89.552 76.942 90.224C76.5794 90.896 76.0834 91.4293 75.454 91.824C74.8247 92.208 74.11 92.4 73.31 92.4ZM73.278 91.44C73.886 91.44 74.43 91.2907 74.91 90.992C75.39 90.6827 75.7687 90.2667 76.046 89.744C76.3234 89.2107 76.462 88.6133 76.462 87.952C76.462 87.2907 76.3234 86.6987 76.046 86.176C75.7687 85.6533 75.39 85.2427 74.91 84.944C74.43 84.6347 73.886 84.48 73.278 84.48C72.67 84.48 72.1207 84.6347 71.63 84.944C71.1394 85.2427 70.75 85.6533 70.462 86.176C70.174 86.6987 70.03 87.2907 70.03 87.952C70.03 88.6133 70.174 89.2107 70.462 89.744C70.75 90.2667 71.1394 90.6827 71.63 90.992C72.1207 91.2907 72.67 91.44 73.278 91.44Z" fill="#424242"/>
<path d="M82.2204 92.4C81.6871 92.4 81.2124 92.2987 80.7964 92.096C80.3804 91.8933 80.0497 91.6107 79.8044 91.248C79.5591 90.8853 79.4364 90.4693 79.4364 90C79.4364 89.584 79.5271 89.1947 79.7084 88.832C79.8897 88.4693 80.1831 88.16 80.5884 87.904C80.9937 87.6373 81.5217 87.4507 82.1724 87.344L85.6124 86.768V87.664L82.4284 88.192C81.7031 88.3093 81.1911 88.528 80.8924 88.848C80.5937 89.168 80.4444 89.5413 80.4444 89.968C80.4444 90.4267 80.6151 90.8 80.9564 91.088C81.3084 91.376 81.7511 91.52 82.2844 91.52C82.9031 91.52 83.4417 91.3813 83.9004 91.104C84.3591 90.816 84.7164 90.4427 84.9724 89.984C85.2284 89.5147 85.3564 89.0027 85.3564 88.448V86.896C85.3564 86.2027 85.1537 85.6533 84.7484 85.248C84.3431 84.832 83.7937 84.624 83.1004 84.624H80.2044V83.712H83.1004C83.7617 83.712 84.3324 83.84 84.8124 84.096C85.2924 84.352 85.6604 84.72 85.9164 85.2C86.1831 85.6693 86.3164 86.2347 86.3164 86.896V92.208H85.3564V90.432L85.4684 90.512C85.3297 90.8533 85.1004 91.168 84.7804 91.456C84.4604 91.7333 84.0817 91.9627 83.6444 92.144C83.2177 92.3147 82.7431 92.4 82.2204 92.4Z" fill="#424242"/>
<path d="M88.9603 92.208V83.712H89.9203V85.296L89.7443 85.152C89.9256 84.672 90.2349 84.2933 90.6723 84.016C91.1203 83.7387 91.6483 83.6 92.2563 83.6H92.8003V84.56H92.1443C91.4509 84.56 90.9069 84.784 90.5123 85.232C90.1176 85.6693 89.9203 86.2613 89.9203 87.008V92.208H88.9603Z" fill="#424242"/>
<path d="M97.1988 92.208V80.288H98.0788L102.527 86.912H102.095L106.559 80.288H107.439V92.208H106.399V81.808L106.655 81.952L102.335 88.4H102.287L97.9668 81.952L98.2388 81.808V92.208H97.1988Z" fill="#424242"/>
<path d="M112.689 92.4C112.156 92.4 111.681 92.2987 111.265 92.096C110.849 91.8933 110.518 91.6107 110.273 91.248C110.028 90.8853 109.905 90.4693 109.905 90C109.905 89.584 109.996 89.1947 110.177 88.832C110.358 88.4693 110.652 88.16 111.057 87.904C111.462 87.6373 111.99 87.4507 112.641 87.344L116.081 86.768V87.664L112.897 88.192C112.172 88.3093 111.66 88.528 111.361 88.848C111.062 89.168 110.913 89.5413 110.913 89.968C110.913 90.4267 111.084 90.8 111.425 91.088C111.777 91.376 112.22 91.52 112.753 91.52C113.372 91.52 113.91 91.3813 114.369 91.104C114.828 90.816 115.185 90.4427 115.441 89.984C115.697 89.5147 115.825 89.0027 115.825 88.448V86.896C115.825 86.2027 115.622 85.6533 115.217 85.248C114.812 84.832 114.262 84.624 113.569 84.624H110.673V83.712H113.569C114.23 83.712 114.801 83.84 115.281 84.096C115.761 84.352 116.129 84.72 116.385 85.2C116.652 85.6693 116.785 86.2347 116.785 86.896V92.208H115.825V90.432L115.937 90.512C115.798 90.8533 115.569 91.168 115.249 91.456C114.929 91.7333 114.55 91.9627 114.113 92.144C113.686 92.3147 113.212 92.4 112.689 92.4Z" fill="#424242"/>
<path d="M119.429 92.208V80.096H120.389V83.712H122.901C123.562 83.712 124.128 83.84 124.597 84.096C125.077 84.352 125.445 84.72 125.701 85.2C125.968 85.6693 126.101 86.2347 126.101 86.896V92.208H125.141V86.896C125.141 86.2027 124.938 85.6533 124.533 85.248C124.138 84.832 123.594 84.624 122.901 84.624H120.389V92.208H119.429Z" fill="#424242"/>
<path d="M131.017 92.4C130.484 92.4 130.009 92.2987 129.593 92.096C129.177 91.8933 128.847 91.6107 128.601 91.248C128.356 90.8853 128.233 90.4693 128.233 90C128.233 89.584 128.324 89.1947 128.505 88.832C128.687 88.4693 128.98 88.16 129.385 87.904C129.791 87.6373 130.319 87.4507 130.969 87.344L134.409 86.768V87.664L131.225 88.192C130.5 88.3093 129.988 88.528 129.689 88.848C129.391 89.168 129.241 89.5413 129.241 89.968C129.241 90.4267 129.412 90.8 129.753 91.088C130.105 91.376 130.548 91.52 131.081 91.52C131.7 91.52 132.239 91.3813 132.697 91.104C133.156 90.816 133.513 90.4427 133.769 89.984C134.025 89.5147 134.153 89.0027 134.153 88.448V86.896C134.153 86.2027 133.951 85.6533 133.545 85.248C133.14 84.832 132.591 84.624 131.897 84.624H129.001V83.712H131.897C132.559 83.712 133.129 83.84 133.609 84.096C134.089 84.352 134.457 84.72 134.713 85.2C134.98 85.6693 135.113 86.2347 135.113 86.896V92.208H134.153V90.432L134.265 90.512C134.127 90.8533 133.897 91.168 133.577 91.456C133.257 91.7333 132.879 91.9627 132.441 92.144C132.015 92.3147 131.54 92.4 131.017 92.4Z" fill="#424242"/>
<path d="M140.621 92.4C139.832 92.4 139.138 92.2027 138.541 91.808C137.944 91.4133 137.506 90.8747 137.229 90.192L138.061 89.808C138.328 90.3307 138.685 90.7467 139.133 91.056C139.581 91.3547 140.077 91.504 140.621 91.504C141.176 91.504 141.64 91.3707 142.013 91.104C142.397 90.8267 142.589 90.464 142.589 90.016C142.589 89.7387 142.514 89.504 142.365 89.312C142.226 89.12 142.045 88.9653 141.821 88.848C141.597 88.72 141.357 88.624 141.101 88.56L139.789 88.192C139.053 87.9893 138.509 87.6907 138.157 87.296C137.816 86.9013 137.645 86.4373 137.645 85.904C137.645 85.424 137.768 85.008 138.013 84.656C138.258 84.2933 138.589 84.016 139.005 83.824C139.421 83.6213 139.88 83.52 140.381 83.52C141.085 83.52 141.725 83.7013 142.301 84.064C142.877 84.4267 143.282 84.9173 143.517 85.536L142.653 85.936C142.429 85.456 142.114 85.0827 141.709 84.816C141.304 84.5387 140.856 84.4 140.365 84.4C139.853 84.4 139.437 84.5387 139.117 84.816C138.797 85.0827 138.637 85.424 138.637 85.84C138.637 86.1067 138.701 86.3307 138.829 86.512C138.957 86.6827 139.122 86.8267 139.325 86.944C139.538 87.0507 139.757 87.136 139.981 87.2L141.405 87.616C142.098 87.808 142.632 88.112 143.005 88.528C143.389 88.944 143.581 89.4347 143.581 90C143.581 90.4587 143.453 90.8693 143.197 91.232C142.941 91.5947 142.589 91.8827 142.141 92.096C141.693 92.2987 141.186 92.4 140.621 92.4Z" fill="#424242"/>
<path d="M145.882 92.208V83.712H146.842V92.208H145.882ZM145.882 82.048V80.288H146.842V82.048H145.882Z" fill="#424242"/>
<path d="M152.34 92.4C151.551 92.4 150.857 92.2027 150.26 91.808C149.663 91.4133 149.225 90.8747 148.948 90.192L149.78 89.808C150.047 90.3307 150.404 90.7467 150.852 91.056C151.3 91.3547 151.796 91.504 152.34 91.504C152.895 91.504 153.359 91.3707 153.732 91.104C154.116 90.8267 154.308 90.464 154.308 90.016C154.308 89.7387 154.233 89.504 154.084 89.312C153.945 89.12 153.764 88.9653 153.54 88.848C153.316 88.72 153.076 88.624 152.82 88.56L151.508 88.192C150.772 87.9893 150.228 87.6907 149.876 87.296C149.535 86.9013 149.364 86.4373 149.364 85.904C149.364 85.424 149.487 85.008 149.732 84.656C149.977 84.2933 150.308 84.016 150.724 83.824C151.14 83.6213 151.599 83.52 152.1 83.52C152.804 83.52 153.444 83.7013 154.02 84.064C154.596 84.4267 155.001 84.9173 155.236 85.536L154.372 85.936C154.148 85.456 153.833 85.0827 153.428 84.816C153.023 84.5387 152.575 84.4 152.084 84.4C151.572 84.4 151.156 84.5387 150.836 84.816C150.516 85.0827 150.356 85.424 150.356 85.84C150.356 86.1067 150.42 86.3307 150.548 86.512C150.676 86.6827 150.841 86.8267 151.044 86.944C151.257 87.0507 151.476 87.136 151.7 87.2L153.124 87.616C153.817 87.808 154.351 88.112 154.724 88.528C155.108 88.944 155.3 89.4347 155.3 90C155.3 90.4587 155.172 90.8693 154.916 91.232C154.66 91.5947 154.308 91.8827 153.86 92.096C153.412 92.2987 152.905 92.4 152.34 92.4Z" fill="#424242"/>
<path d="M159.301 92.208L156.389 83.712H157.461L160.005 91.408H159.589L161.893 83.712H162.869L165.173 91.408H164.757L167.317 83.712H168.389L165.461 92.208H164.485L162.261 84.784H162.501L160.277 92.208H159.301Z" fill="#424242"/>
<path d="M172.095 92.4C171.562 92.4 171.087 92.2987 170.671 92.096C170.255 91.8933 169.925 91.6107 169.679 91.248C169.434 90.8853 169.311 90.4693 169.311 90C169.311 89.584 169.402 89.1947 169.583 88.832C169.765 88.4693 170.058 88.16 170.463 87.904C170.869 87.6373 171.397 87.4507 172.047 87.344L175.487 86.768V87.664L172.303 88.192C171.578 88.3093 171.066 88.528 170.767 88.848C170.469 89.168 170.319 89.5413 170.319 89.968C170.319 90.4267 170.49 90.8 170.831 91.088C171.183 91.376 171.626 91.52 172.159 91.52C172.778 91.52 173.317 91.3813 173.775 91.104C174.234 90.816 174.591 90.4427 174.847 89.984C175.103 89.5147 175.231 89.0027 175.231 88.448V86.896C175.231 86.2027 175.029 85.6533 174.623 85.248C174.218 84.832 173.669 84.624 172.975 84.624H170.079V83.712H172.975C173.637 83.712 174.207 83.84 174.687 84.096C175.167 84.352 175.535 84.72 175.791 85.2C176.058 85.6693 176.191 86.2347 176.191 86.896V92.208H175.231V90.432L175.343 90.512C175.205 90.8533 174.975 91.168 174.655 91.456C174.335 91.7333 173.957 91.9627 173.519 92.144C173.093 92.3147 172.618 92.4 172.095 92.4Z" fill="#424242"/>
<path d="M181.107 92.208V81.248H177.779V80.288H185.459V81.248H182.147V92.208H181.107Z" fill="#424242"/>
<path d="M189.961 92.4C189.108 92.4 188.351 92.208 187.689 91.824C187.028 91.4293 186.505 90.896 186.121 90.224C185.748 89.5413 185.561 88.7787 185.561 87.936C185.561 87.0933 185.743 86.3413 186.105 85.68C186.468 85.008 186.959 84.48 187.577 84.096C188.196 83.712 188.889 83.52 189.657 83.52C190.244 83.52 190.772 83.6267 191.241 83.84C191.721 84.0533 192.132 84.352 192.473 84.736C192.825 85.1093 193.092 85.5413 193.273 86.032C193.465 86.512 193.561 87.0187 193.561 87.552C193.561 87.6587 193.556 87.7707 193.545 87.888C193.535 88.0053 193.519 88.128 193.497 88.256H186.121V87.376H192.953L192.521 87.712C192.585 87.0933 192.495 86.5387 192.249 86.048C192.004 85.5467 191.652 85.152 191.193 84.864C190.745 84.5653 190.233 84.416 189.657 84.416C189.081 84.416 188.553 84.5707 188.073 84.88C187.593 85.1787 187.215 85.5947 186.937 86.128C186.66 86.6507 186.532 87.2587 186.553 87.952C186.532 88.6453 186.665 89.2587 186.953 89.792C187.252 90.3253 187.663 90.7467 188.185 91.056C188.708 91.3547 189.3 91.504 189.961 91.504H192.969V92.4H189.961Z" fill="#424242"/>
<path d="M195.851 92.208V80.096H196.811V88.752L196.315 88.704L201.339 83.712H202.651L199.227 87.136L202.971 92.208H201.771L198.219 87.44L198.859 87.456L196.555 89.824L196.811 89.168V92.208H195.851Z" fill="#424242"/>
<path d="M204.554 92.208V83.712H208.026C208.687 83.712 209.253 83.84 209.722 84.096C210.202 84.352 210.57 84.72 210.826 85.2C211.093 85.6693 211.226 86.2347 211.226 86.896V92.208H210.266V86.896C210.266 86.2027 210.063 85.6533 209.658 85.248C209.263 84.832 208.719 84.624 208.026 84.624H205.514V92.208H204.554Z" fill="#424242"/>
<path d="M217.662 92.4C216.852 92.4 216.121 92.208 215.47 91.824C214.82 91.44 214.302 90.912 213.918 90.24C213.545 89.5573 213.358 88.7947 213.358 87.952C213.358 87.1093 213.545 86.352 213.918 85.68C214.302 85.008 214.814 84.48 215.454 84.096C216.105 83.712 216.841 83.52 217.662 83.52C218.473 83.52 219.204 83.712 219.854 84.096C220.505 84.48 221.017 85.008 221.39 85.68C221.764 86.3413 221.95 87.0987 221.95 87.952C221.95 88.8053 221.758 89.568 221.374 90.24C220.99 90.912 220.473 91.44 219.822 91.824C219.182 92.208 218.462 92.4 217.662 92.4ZM217.662 91.456C218.27 91.456 218.82 91.3067 219.31 91.008C219.812 90.6987 220.206 90.2773 220.494 89.744C220.782 89.2107 220.926 88.6133 220.926 87.952C220.926 87.2907 220.782 86.6987 220.494 86.176C220.206 85.6533 219.817 85.2373 219.326 84.928C218.836 84.6187 218.281 84.464 217.662 84.464C217.044 84.464 216.484 84.6187 215.982 84.928C215.492 85.2267 215.102 85.6427 214.814 86.176C214.526 86.6987 214.382 87.2907 214.382 87.952C214.382 88.6133 214.526 89.2107 214.814 89.744C215.113 90.2773 215.508 90.6987 215.998 91.008C216.489 91.3067 217.044 91.456 217.662 91.456Z" fill="#424242"/>
<path d="M226.193 92.304C225.553 92.304 225.068 92.1493 224.737 91.84C224.417 91.5307 224.257 91.0987 224.257 90.544V80.096H225.217V90.496C225.217 91.136 225.569 91.456 226.273 91.456H226.417V92.304H226.193Z" fill="#424242"/>
<path d="M232.35 92.4C231.539 92.4 230.808 92.208 230.158 91.824C229.507 91.44 228.99 90.912 228.606 90.24C228.232 89.5573 228.046 88.7947 228.046 87.952C228.046 87.1093 228.232 86.352 228.606 85.68C228.99 85.008 229.502 84.48 230.142 84.096C230.792 83.712 231.528 83.52 232.35 83.52C233.16 83.52 233.891 83.712 234.542 84.096C235.192 84.48 235.704 85.008 236.078 85.68C236.451 86.3413 236.638 87.0987 236.638 87.952C236.638 88.8053 236.446 89.568 236.062 90.24C235.678 90.912 235.16 91.44 234.51 91.824C233.87 92.208 233.15 92.4 232.35 92.4ZM232.35 91.456C232.958 91.456 233.507 91.3067 233.998 91.008C234.499 90.6987 234.894 90.2773 235.182 89.744C235.47 89.2107 235.614 88.6133 235.614 87.952C235.614 87.2907 235.47 86.6987 235.182 86.176C234.894 85.6533 234.504 85.2373 234.014 84.928C233.523 84.6187 232.968 84.464 232.35 84.464C231.731 84.464 231.171 84.6187 230.67 84.928C230.179 85.2267 229.79 85.6427 229.502 86.176C229.214 86.6987 229.07 87.2907 229.07 87.952C229.07 88.6133 229.214 89.2107 229.502 89.744C229.8 90.2773 230.195 90.6987 230.686 91.008C231.176 91.3067 231.731 91.456 232.35 91.456Z" fill="#424242"/>
<path d="M239.937 95.728V94.784H243.105C243.979 94.784 244.673 94.56 245.185 94.112C245.697 93.6747 245.953 93.0773 245.953 92.32V89.728L246.129 89.952C245.83 90.6133 245.377 91.136 244.769 91.52C244.161 91.8933 243.483 92.08 242.737 92.08C241.947 92.08 241.238 91.888 240.609 91.504C239.979 91.12 239.483 90.6027 239.121 89.952C238.769 89.3013 238.593 88.5813 238.593 87.792C238.593 87.0027 238.769 86.288 239.121 85.648C239.483 84.9973 239.974 84.48 240.593 84.096C241.222 83.712 241.937 83.52 242.737 83.52C243.483 83.52 244.155 83.7067 244.753 84.08C245.35 84.4427 245.809 84.9333 246.129 85.552L245.953 85.856V83.712H246.913V92.32C246.913 93.0027 246.753 93.6 246.433 94.112C246.123 94.624 245.681 95.0187 245.105 95.296C244.539 95.584 243.873 95.728 243.105 95.728H239.937ZM242.769 91.12C243.366 91.12 243.899 90.9707 244.369 90.672C244.849 90.3733 245.227 89.9733 245.505 89.472C245.782 88.96 245.921 88.4 245.921 87.792C245.921 87.184 245.782 86.6293 245.505 86.128C245.227 85.6267 244.849 85.2267 244.369 84.928C243.899 84.6293 243.366 84.48 242.769 84.48C242.161 84.48 241.617 84.6293 241.137 84.928C240.657 85.2267 240.283 85.6267 240.017 86.128C239.75 86.6293 239.617 87.184 239.617 87.792C239.617 88.4 239.75 88.96 240.017 89.472C240.283 89.9733 240.651 90.3733 241.121 90.672C241.601 90.9707 242.15 91.12 242.769 91.12Z" fill="#424242"/>
<path d="M249.554 92.208V83.712H250.514V92.208H249.554ZM249.554 82.048V80.288H250.514V82.048H249.554Z" fill="#424242"/>
<path d="M255.964 92.208V80.288H259.964C260.722 80.288 261.388 80.4373 261.964 80.736C262.54 81.0347 262.988 81.456 263.308 82C263.639 82.544 263.804 83.1733 263.804 83.888C263.804 84.6027 263.639 85.232 263.308 85.776C262.988 86.3093 262.54 86.7307 261.964 87.04C261.399 87.3387 260.732 87.488 259.964 87.488H257.004V92.208H255.964ZM257.004 86.528H259.996C260.54 86.528 261.02 86.4213 261.436 86.208C261.852 85.984 262.178 85.6747 262.412 85.28C262.647 84.8747 262.764 84.4053 262.764 83.872C262.764 83.3387 262.647 82.88 262.412 82.496C262.178 82.1013 261.852 81.7973 261.436 81.584C261.02 81.36 260.54 81.248 259.996 81.248H257.004V86.528Z" fill="#424242"/>
<path d="M269.665 92.4C268.811 92.4 268.054 92.208 267.393 91.824C266.731 91.4293 266.209 90.896 265.825 90.224C265.451 89.5413 265.265 88.7787 265.265 87.936C265.265 87.0933 265.446 86.3413 265.809 85.68C266.171 85.008 266.662 84.48 267.281 84.096C267.899 83.712 268.593 83.52 269.361 83.52C269.947 83.52 270.475 83.6267 270.945 83.84C271.425 84.0533 271.835 84.352 272.177 84.736C272.529 85.1093 272.795 85.5413 272.977 86.032C273.169 86.512 273.265 87.0187 273.265 87.552C273.265 87.6587 273.259 87.7707 273.249 87.888C273.238 88.0053 273.222 88.128 273.201 88.256H265.825V87.376H272.657L272.225 87.712C272.289 87.0933 272.198 86.5387 271.953 86.048C271.707 85.5467 271.355 85.152 270.897 84.864C270.449 84.5653 269.937 84.416 269.361 84.416C268.785 84.416 268.257 84.5707 267.777 84.88C267.297 85.1787 266.918 85.5947 266.641 86.128C266.363 86.6507 266.235 87.2587 266.257 87.952C266.235 88.6453 266.369 89.2587 266.657 89.792C266.955 90.3253 267.366 90.7467 267.889 91.056C268.411 91.3547 269.003 91.504 269.665 91.504H272.673V92.4H269.665Z" fill="#424242"/>
<path d="M275.554 92.208V83.712H279.026C279.687 83.712 280.253 83.84 280.722 84.096C281.202 84.352 281.57 84.72 281.826 85.2C282.093 85.6693 282.226 86.2347 282.226 86.896V92.208H281.266V86.896C281.266 86.2027 281.063 85.6533 280.658 85.248C280.263 84.832 279.719 84.624 279.026 84.624H276.514V92.208H275.554Z" fill="#424242"/>
<path d="M288.534 92.4C287.745 92.4 287.03 92.208 286.39 91.824C285.761 91.4293 285.265 90.896 284.902 90.224C284.54 89.552 284.358 88.7947 284.358 87.952C284.358 87.1093 284.54 86.352 284.902 85.68C285.265 85.008 285.761 84.48 286.39 84.096C287.03 83.712 287.745 83.52 288.534 83.52C289.313 83.52 290.006 83.7067 290.614 84.08C291.222 84.4427 291.681 84.9333 291.99 85.552L291.83 85.856V80.096H292.79V92.208H291.83V90.048L291.99 90.272C291.692 90.9333 291.233 91.456 290.614 91.84C290.006 92.2133 289.313 92.4 288.534 92.4ZM288.566 91.44C289.185 91.44 289.734 91.2907 290.214 90.992C290.705 90.6827 291.094 90.2667 291.382 89.744C291.67 89.2107 291.814 88.6133 291.814 87.952C291.814 87.2907 291.67 86.6987 291.382 86.176C291.094 85.6533 290.705 85.2427 290.214 84.944C289.734 84.6347 289.185 84.48 288.566 84.48C287.958 84.48 287.414 84.6347 286.934 84.944C286.454 85.2427 286.076 85.6533 285.798 86.176C285.521 86.6987 285.382 87.2907 285.382 87.952C285.382 88.6133 285.521 89.2107 285.798 89.744C286.076 90.2667 286.454 90.6827 286.934 90.992C287.414 91.2907 287.958 91.44 288.566 91.44Z" fill="#424242"/>
<path d="M295.445 92.208V83.712H296.405V92.208H295.445ZM295.445 82.048V80.288H296.405V82.048H295.445Z" fill="#424242"/>
<path d="M302.862 92.4C302.073 92.4 301.358 92.208 300.718 91.824C300.089 91.4293 299.593 90.896 299.23 90.224C298.868 89.552 298.686 88.7947 298.686 87.952C298.686 87.1093 298.868 86.352 299.23 85.68C299.593 85.008 300.089 84.48 300.718 84.096C301.358 83.712 302.073 83.52 302.862 83.52C303.641 83.52 304.334 83.7067 304.942 84.08C305.55 84.4427 306.009 84.9333 306.318 85.552L306.158 85.856V80.096H307.118V92.208H306.158V90.048L306.318 90.272C306.02 90.9333 305.561 91.456 304.942 91.84C304.334 92.2133 303.641 92.4 302.862 92.4ZM302.894 91.44C303.513 91.44 304.062 91.2907 304.542 90.992C305.033 90.6827 305.422 90.2667 305.71 89.744C305.998 89.2107 306.142 88.6133 306.142 87.952C306.142 87.2907 305.998 86.6987 305.71 86.176C305.422 85.6533 305.033 85.2427 304.542 84.944C304.062 84.6347 303.513 84.48 302.894 84.48C302.286 84.48 301.742 84.6347 301.262 84.944C300.782 85.2427 300.404 85.6533 300.126 86.176C299.849 86.6987 299.71 87.2907 299.71 87.952C299.71 88.6133 299.849 89.2107 300.126 89.744C300.404 90.2667 300.782 90.6827 301.262 90.992C301.742 91.2907 302.286 91.44 302.894 91.44Z" fill="#424242"/>
<path d="M309.773 92.208V83.712H310.733V92.208H309.773ZM309.773 82.048V80.288H310.733V82.048H309.773Z" fill="#424242"/>
<path d="M313.367 92.208V80.096H314.327V88.752L313.831 88.704L318.855 83.712H320.167L316.743 87.136L320.487 92.208H319.286L315.735 87.44L316.375 87.456L314.071 89.824L314.327 89.168V92.208H313.367Z" fill="#424242"/>
<path d="M324.502 92.4C323.968 92.4 323.494 92.2987 323.078 92.096C322.662 91.8933 322.331 91.6107 322.086 91.248C321.84 90.8853 321.718 90.4693 321.718 90C321.718 89.584 321.808 89.1947 321.99 88.832C322.171 88.4693 322.464 88.16 322.87 87.904C323.275 87.6373 323.803 87.4507 324.454 87.344L327.894 86.768V87.664L324.71 88.192C323.984 88.3093 323.472 88.528 323.174 88.848C322.875 89.168 322.726 89.5413 322.726 89.968C322.726 90.4267 322.896 90.8 323.238 91.088C323.59 91.376 324.032 91.52 324.566 91.52C325.184 91.52 325.723 91.3813 326.182 91.104C326.64 90.816 326.998 90.4427 327.254 89.984C327.51 89.5147 327.638 89.0027 327.638 88.448V86.896C327.638 86.2027 327.435 85.6533 327.03 85.248C326.624 84.832 326.075 84.624 325.382 84.624H322.486V83.712H325.382C326.043 83.712 326.614 83.84 327.094 84.096C327.574 84.352 327.942 84.72 328.198 85.2C328.464 85.6693 328.598 86.2347 328.598 86.896V92.208H327.638V90.432L327.75 90.512C327.611 90.8533 327.382 91.168 327.062 91.456C326.742 91.7333 326.363 91.9627 325.926 92.144C325.499 92.3147 325.024 92.4 324.502 92.4Z" fill="#424242"/>
<path d="M331.242 92.208V83.712H334.714C335.375 83.712 335.94 83.84 336.41 84.096C336.89 84.352 337.258 84.72 337.514 85.2C337.78 85.6693 337.914 86.2347 337.914 86.896V92.208H336.954V86.896C336.954 86.2027 336.751 85.6533 336.346 85.248C335.951 84.832 335.407 84.624 334.714 84.624H332.202V92.208H331.242Z" fill="#424242"/>
</svg>
