<svg width="300" height="300" viewBox="0 0 300 300" fill="none" xmlns="http://www.w3.org/2000/svg">
<path d="M0 85.8C0 38.414 38.414 0 85.8 0H214.2C261.586 0 300 38.414 300 85.8V214.2C300 261.586 261.586 300 214.2 300H85.8C38.414 300 0 261.586 0 214.2V85.8Z" fill="white"/>
<path d="M205.685 145.843C208.885 147.691 208.885 152.31 205.685 154.157L64.2 235.843C61 237.691 57 235.381 57 231.686L57 68.314C57 64.619 61 62.3095 64.2 64.1571L205.685 145.843Z" fill="#1E88E5"/>
<path d="M94.4704 154.158C91.2704 152.31 91.2704 147.691 94.4704 145.844L235.955 64.1578C239.155 62.3103 243.155 64.6196 243.155 68.3147L243.155 231.687C243.155 235.382 239.155 237.691 235.955 235.844L94.4704 154.158Z" fill="#FFD026"/>
<path fill-rule="evenodd" clip-rule="evenodd" d="M205.685 154.157C208.885 152.309 208.884 147.691 205.684 145.843L150.077 113.738L94.4702 145.843C91.2702 147.691 91.2703 152.309 94.4703 154.157L150.077 186.262L205.685 154.157Z" fill="#16A75C"/>
</svg>
