<svg width="300" height="300" viewBox="0 0 300 300" fill="none" xmlns="http://www.w3.org/2000/svg">
<path d="M0 85.8C0 38.414 38.414 0 85.8 0H214.2C261.586 0 300 38.414 300 85.8V214.2C300 261.586 261.586 300 214.2 300H85.8C38.414 300 0 261.586 0 214.2V85.8Z" fill="white"/>
<rect x="123.524" y="69.7158" width="115.293" height="115.293" rx="8" transform="rotate(45 123.524 69.7158)" fill="#1E88E5"/>
<rect x="176.64" y="68" width="115.293" height="115.293" rx="8" transform="rotate(45 176.64 68)" fill="#FFD026"/>
<path fill-rule="evenodd" clip-rule="evenodd" d="M149.224 95.4168L199.392 145.585C202.516 148.709 202.516 153.775 199.392 156.899L150.941 205.349L100.773 155.181C97.6487 152.057 97.6487 146.992 100.773 143.867L149.224 95.4168Z" fill="#16A75C"/>
</svg>
