<svg width="300" height="300" viewBox="0 0 300 300" fill="none" xmlns="http://www.w3.org/2000/svg">
<path d="M0 85.8C0 38.414 38.414 0 85.8 0H214.2C261.586 0 300 38.414 300 85.8V214.2C300 261.586 261.586 300 214.2 300H85.8C38.414 300 0 261.586 0 214.2V85.8Z" fill="white"/>
<path d="M189.768 109.668C212.004 131.905 212.004 167.958 189.768 190.195C167.531 212.432 131.478 212.432 109.241 190.195C87.0044 167.958 87.0044 131.905 109.241 109.668C131.478 87.4316 167.531 87.4316 189.768 109.668Z" fill="#16A75C"/>
<path fill-rule="evenodd" clip-rule="evenodd" d="M164.659 221.236C149.359 224.467 133.426 222.721 119.189 216.254C104.951 209.786 93.1547 198.935 85.5224 185.287C77.8901 171.638 74.8219 155.906 76.766 140.39C78.7101 124.873 85.5647 110.385 96.3284 99.0412L75.6885 79.4568C65.0933 90.6231 57.2268 103.984 52.5846 118.493C50.6806 124.444 49.319 130.588 48.5341 136.853C45.8355 158.391 50.0944 180.228 60.6888 199.174C71.2832 218.119 87.6579 233.181 107.421 242.159C113.169 244.77 119.117 246.827 125.184 248.32C139.975 251.962 155.478 252.255 170.538 249.075L164.659 221.236Z" fill="#1E88E5"/>
<path fill-rule="evenodd" clip-rule="evenodd" d="M134.356 77.7648C149.656 74.5337 165.589 76.2795 179.827 82.7472C194.064 89.2149 205.861 100.066 213.493 113.714C221.125 127.363 224.194 143.095 222.25 158.611C220.305 174.128 213.451 188.616 202.687 199.96L223.327 219.544C233.922 208.378 241.789 195.017 246.431 180.508C248.335 174.557 249.697 168.413 250.481 162.148C253.18 140.61 248.921 118.773 238.327 99.8275C227.732 80.8818 211.358 65.82 191.595 56.8422C185.846 54.2309 179.899 52.1741 173.832 50.6805C159.04 47.0392 143.538 46.7456 128.477 49.9262L134.356 77.7648Z" fill="#FFD026"/>
</svg>
