<svg width="300" height="300" viewBox="0 0 300 300" fill="none" xmlns="http://www.w3.org/2000/svg">
<path d="M0 85.8C0 38.414 38.414 0 85.8 0H214.2C261.586 0 300 38.414 300 85.8V214.2C300 261.586 261.586 300 214.2 300H85.8C38.414 300 0 261.586 0 214.2V85.8Z" fill="white"/>
<path d="M189.768 109.668C212.004 131.905 212.004 167.958 189.768 190.195C167.531 212.432 131.478 212.432 109.241 190.195C87.0044 167.958 87.0044 131.905 109.241 109.668C131.478 87.4316 167.531 87.4316 189.768 109.668Z" fill="#16A75C"/>
<path fill-rule="evenodd" clip-rule="evenodd" d="M166.312 229.063C165.4 224.741 161.154 222.023 156.757 222.459C143.953 223.731 130.989 221.614 119.189 216.254C104.951 209.786 93.1547 198.935 85.5224 185.287C77.8901 171.638 74.8219 155.906 76.766 140.39C78.3773 127.53 83.3616 115.376 91.1488 105.133C93.8229 101.616 93.7302 96.5759 90.5251 93.5347L81.4918 84.9634C78.2867 81.9222 73.1956 82.0366 70.4155 85.4706C62.457 95.3008 56.4202 106.505 52.5846 118.493C50.6806 124.444 49.319 130.588 48.5341 136.853C45.8355 158.391 50.0944 180.228 60.6888 199.174C71.2832 218.119 87.6579 233.181 107.421 242.159C113.169 244.77 119.117 246.827 125.184 248.32C137.405 251.329 150.112 252.052 162.654 250.419C167.035 249.848 169.798 245.57 168.885 241.247L166.312 229.063Z" fill="#1E88E5"/>
<path fill-rule="evenodd" clip-rule="evenodd" d="M132.703 69.9375C133.616 74.2604 137.862 76.9784 142.258 76.5417C155.062 75.2699 168.027 77.3868 179.827 82.7472C194.064 89.2149 205.861 100.066 213.493 113.714C221.125 127.363 224.194 143.095 222.25 158.611C220.638 171.471 215.654 183.625 207.867 193.868C205.193 197.385 205.285 202.425 208.49 205.466L217.524 214.038C220.729 217.079 225.82 216.964 228.6 213.53C236.559 203.7 242.595 192.496 246.431 180.508C248.335 174.557 249.697 168.413 250.481 162.148C253.18 140.61 248.921 118.773 238.327 99.8275C227.732 80.8818 211.358 65.82 191.595 56.8422C185.846 54.2309 179.899 52.1741 173.832 50.6805C161.61 47.6719 148.904 46.9487 136.362 48.5823C131.98 49.153 129.217 53.4306 130.13 57.7536L132.703 69.9375Z" fill="#FFD026"/>
</svg>
