<svg width="2264" height="500" viewBox="0 0 2264 500" fill="none" xmlns="http://www.w3.org/2000/svg">
<g clip-path="url(#clip0_836_524)">
<g clip-path="url(#clip1_836_524)">
<path fill-rule="evenodd" clip-rule="evenodd" d="M239.614 0.0913937C308.655 -1.61199 368.712 20.4951 419.782 66.4132C467.424 111.7 493.963 167.349 499.395 233.361C501.052 257.03 499.306 280.437 494.159 303.584C439.284 282.821 383.166 278.651 325.805 291.073C268.707 304.13 219.793 331.439 179.065 373C197.845 302.847 192.295 234.685 162.418 168.519C143.459 127.996 116.653 93.6019 82 65.3369C120.627 30.3855 165.914 9.30972 217.865 2.1093C225.136 1.2112 232.386 0.538561 239.614 0.0913937Z" fill="url(#paint0_linear_836_524)"/>
<path fill-rule="evenodd" clip-rule="evenodd" d="M63.9736 83C64.8753 83.3185 65.6801 83.8115 66.3881 84.4794C118.552 128.128 150.342 183.764 161.76 251.384C168.319 294.072 164.92 335.945 151.565 377C155.259 306.722 136.929 242.973 96.5689 185.752C79.1228 161.804 58.5998 140.868 35 122.944C43.4447 108.745 53.1026 95.43 63.9736 83Z" fill="url(#paint1_linear_836_524)"/>
<path fill-rule="evenodd" clip-rule="evenodd" d="M23.473 145C62.0586 174.897 90.5085 212.474 108.822 257.729C131.222 315.215 133.999 373.638 117.155 432.996C116.032 436.675 114.867 440.344 113.661 444C117.349 375.332 99.8764 312.706 61.2417 256.118C45.5208 233.932 27.1069 214.159 6 196.802C10.058 178.921 15.8825 161.652 23.473 145Z" fill="url(#paint2_linear_836_524)"/>
<path fill-rule="evenodd" clip-rule="evenodd" d="M1.07162 226C41.7069 263.183 68.6047 308.725 81.7648 362.623C87.8838 388.418 90.1215 414.545 88.4781 441C45.5289 404.112 17.8703 357.856 5.50236 302.23C0.215281 277.042 -1.26163 251.631 1.07162 226Z" fill="url(#paint3_linear_836_524)"/>
<path fill-rule="evenodd" clip-rule="evenodd" d="M381.591 308.087C418.243 307.179 453.621 313.403 487.731 326.756C487.855 326.866 487.944 327 488 327.159C482.792 342.943 476.118 358.077 467.981 372.555C422.857 353.121 375.789 345.465 326.774 349.588C277.344 354.09 231.932 369.847 190.537 396.865C190.357 397.045 190.18 397.045 190 396.865C230.449 352.505 280.34 324.478 339.672 312.788C353.575 310.225 367.548 308.656 381.591 308.087Z" fill="url(#paint4_linear_836_524)"/>
<path fill-rule="evenodd" clip-rule="evenodd" d="M342.212 373.134C380.981 371.935 418.244 378.804 454 393.743C443.607 408.686 431.632 422.334 418.078 434.692C356.262 411.658 293.62 409.233 230.155 427.418C201.688 435.931 175.148 448.415 150.536 464.865C150.357 465.045 150.179 465.045 150 464.865C191.061 418.582 242.087 389.486 303.072 377.579C316.063 375.235 329.111 373.753 342.212 373.134Z" fill="url(#paint5_linear_836_524)"/>
<path fill-rule="evenodd" clip-rule="evenodd" d="M307.795 440.047C337.954 439.488 367.355 443.879 396 453.222C349.421 486.046 297.52 501.594 240.297 499.871C214.4 498.857 189.299 493.883 165 484.949C208.312 456.575 255.91 441.607 307.795 440.047Z" fill="url(#paint6_linear_836_524)"/>
</g>
<path d="M680.522 115.065V157.942H749.875V197.798H680.522V244.298H758.96V285.664H628.735V73.6988H758.96V115.065H680.522Z" fill="#051B2E"/>
<path d="M872.231 73.6988C894.641 73.6988 914.226 78.1273 930.983 86.9844C947.741 95.8414 960.663 108.322 969.748 124.426C979.035 140.328 983.679 158.747 983.679 179.682C983.679 200.415 979.035 218.834 969.748 234.938C960.663 251.041 947.64 263.522 930.68 272.379C913.923 281.236 894.44 285.664 872.231 285.664H792.581V73.6988H872.231ZM868.899 240.976C888.483 240.976 903.727 235.642 914.629 224.973C925.532 214.305 930.983 199.207 930.983 179.682C930.983 160.156 925.532 144.958 914.629 134.088C903.727 123.218 888.483 117.783 868.899 117.783H844.368V240.976H868.899Z" fill="#051B2E"/>
<path d="M1165.56 73.6988V115.065H1109.23V285.664H1057.44V115.065H1001.11V73.6988H1165.56Z" fill="#051B2E"/>
<path d="M1243.34 115.065V157.942H1312.69V197.798H1243.34V244.298H1321.78V285.664H1191.55V73.6988H1321.78V115.065H1243.34Z" fill="#051B2E"/>
<path d="M1346.61 179.38C1346.61 158.445 1351.16 139.825 1360.24 123.52C1369.33 107.013 1381.95 94.231 1398.1 85.1727C1414.45 75.913 1432.93 71.2832 1453.52 71.2832C1478.76 71.2832 1500.36 77.926 1518.33 91.2116C1536.3 104.497 1548.31 122.614 1554.37 145.562H1497.43C1493.19 136.705 1487.14 129.961 1479.26 125.331C1471.59 120.702 1462.81 118.387 1452.91 118.387C1436.96 118.387 1424.04 123.922 1414.15 134.994C1404.26 146.065 1399.31 160.86 1399.31 179.38C1399.31 197.899 1404.26 212.694 1414.15 223.766C1424.04 234.837 1436.96 240.373 1452.91 240.373C1462.81 240.373 1471.59 238.058 1479.26 233.428C1487.14 228.798 1493.19 222.055 1497.43 213.197H1554.37C1548.31 236.145 1536.3 254.262 1518.33 267.548C1500.36 280.632 1478.76 287.174 1453.52 287.174C1432.93 287.174 1414.45 282.645 1398.1 273.587C1381.95 264.327 1369.33 251.545 1360.24 235.24C1351.16 218.934 1346.61 200.315 1346.61 179.38Z" fill="#051B2E"/>
<path d="M1770.21 73.6988V285.664H1718.43V198.402H1637.87V285.664H1586.08V73.6988H1637.87V156.734H1718.43V73.6988H1770.21Z" fill="#051B2E"/>
<path d="M1937.83 158.243V201.12H1804.57V158.243H1937.83Z" fill="#051B2E"/>
<path d="M2035.06 73.6988V285.664H1983.28V73.6988H2035.06Z" fill="#051B2E"/>
<path d="M2152.24 73.6988C2174.65 73.6988 2194.24 78.1273 2211 86.9844C2227.75 95.8414 2240.67 108.322 2249.76 124.426C2259.05 140.328 2263.69 158.747 2263.69 179.682C2263.69 200.415 2259.05 218.834 2249.76 234.938C2240.67 251.041 2227.65 263.522 2210.69 272.379C2193.94 281.236 2174.45 285.664 2152.24 285.664H2072.59V73.6988H2152.24ZM2148.91 240.976C2168.5 240.976 2183.74 235.642 2194.64 224.973C2205.54 214.305 2211 199.207 2211 179.682C2211 160.156 2205.54 144.958 2194.64 134.088C2183.74 123.218 2168.5 117.783 2148.91 117.783H2124.38V240.976H2148.91Z" fill="#051B2E"/>
<path d="M736.752 346.058V361.894H715.188V427.201H695.364V361.894H673.8V346.058H736.752Z" fill="#051B2E"/>
<path d="M766.527 361.894V378.307H793.076V393.565H766.527V411.366H796.554V427.201H746.702V346.058H796.554V361.894H766.527Z" fill="#051B2E"/>
<path d="M856.61 427.201L829.249 391.369V427.201H809.424V346.058H829.249V381.659L856.378 346.058H879.681L848.146 385.821L880.84 427.201H856.61Z" fill="#051B2E"/>
<path d="M963.068 427.201H943.244L910.086 377.152V427.201H890.261V346.058H910.086L943.244 396.339V346.058H963.068V427.201Z" fill="#051B2E"/>
<path d="M1015.93 428.01C1008.28 428.01 1001.24 426.238 994.829 422.693C988.491 419.149 983.429 414.217 979.642 407.898C975.932 401.502 974.077 394.336 974.077 386.399C974.077 378.462 975.932 371.334 979.642 365.015C983.429 358.696 988.491 353.764 994.829 350.219C1001.24 346.675 1008.28 344.902 1015.93 344.902C1023.58 344.902 1030.58 346.675 1036.91 350.219C1043.33 353.764 1048.35 358.696 1051.98 365.015C1055.69 371.334 1057.55 378.462 1057.55 386.399C1057.55 394.336 1055.69 401.502 1051.98 407.898C1048.27 414.217 1043.25 419.149 1036.91 422.693C1030.58 426.238 1023.58 428.01 1015.93 428.01ZM1015.93 409.979C1022.42 409.979 1027.6 407.821 1031.46 403.506C1035.41 399.19 1037.38 393.488 1037.38 386.399C1037.38 379.232 1035.41 373.53 1031.46 369.291C1027.6 364.976 1022.42 362.819 1015.93 362.819C1009.36 362.819 1004.1 364.938 1000.16 369.176C996.297 373.414 994.365 379.155 994.365 386.399C994.365 393.565 996.297 399.306 1000.16 403.621C1004.1 407.859 1009.36 409.979 1015.93 409.979Z" fill="#051B2E"/>
<path d="M1088.4 411.944H1114.37V427.201H1068.58V346.058H1088.4V411.944Z" fill="#051B2E"/>
<path d="M1162.32 428.01C1154.67 428.01 1147.63 426.238 1141.22 422.693C1134.88 419.149 1129.82 414.217 1126.03 407.898C1122.32 401.502 1120.47 394.336 1120.47 386.399C1120.47 378.462 1122.32 371.334 1126.03 365.015C1129.82 358.696 1134.88 353.764 1141.22 350.219C1147.63 346.675 1154.67 344.902 1162.32 344.902C1169.97 344.902 1176.97 346.675 1183.3 350.219C1189.72 353.764 1194.74 358.696 1198.37 365.015C1202.08 371.334 1203.94 378.462 1203.94 386.399C1203.94 394.336 1202.08 401.502 1198.37 407.898C1194.66 414.217 1189.64 419.149 1183.3 422.693C1176.97 426.238 1169.97 428.01 1162.32 428.01ZM1162.32 409.979C1168.81 409.979 1173.99 407.821 1177.85 403.506C1181.8 399.19 1183.77 393.488 1183.77 386.399C1183.77 379.232 1181.8 373.53 1177.85 369.291C1173.99 364.976 1168.81 362.819 1162.32 362.819C1155.75 362.819 1150.49 364.938 1146.55 369.176C1142.69 373.414 1140.76 379.155 1140.76 386.399C1140.76 393.565 1142.69 399.306 1146.55 403.621C1150.49 407.859 1155.75 409.979 1162.32 409.979Z" fill="#051B2E"/>
<path d="M1268.99 371.719C1267.53 369.022 1265.4 366.98 1262.62 365.593C1259.91 364.129 1256.71 363.396 1253 363.396C1246.58 363.396 1241.44 365.516 1237.58 369.754C1233.71 373.915 1231.78 379.502 1231.78 386.514C1231.78 393.989 1233.79 399.845 1237.81 404.084C1241.9 408.245 1247.51 410.325 1254.62 410.325C1259.49 410.325 1263.58 409.092 1266.91 406.627C1270.31 404.161 1272.78 400.616 1274.33 395.992H1249.17V381.428H1292.3V399.807C1290.83 404.739 1288.32 409.324 1284.76 413.562C1281.28 417.8 1276.84 421.229 1271.43 423.849C1266.02 426.469 1259.91 427.779 1253.11 427.779C1245.07 427.779 1237.89 426.045 1231.55 422.578C1225.29 419.033 1220.38 414.14 1216.82 407.898C1213.35 401.656 1211.61 394.528 1211.61 386.514C1211.61 378.5 1213.35 371.372 1216.82 365.13C1220.38 358.811 1225.29 353.918 1231.55 350.451C1237.81 346.906 1244.96 345.134 1253 345.134C1262.73 345.134 1270.93 347.484 1277.57 352.184C1284.3 356.885 1288.74 363.396 1290.91 371.719H1268.99Z" fill="#051B2E"/>
<path d="M1323.1 346.058V427.201H1303.28V346.058H1323.1Z" fill="#051B2E"/>
<path d="M1424.06 372.181C1424.06 376.882 1422.98 381.197 1420.82 385.127C1418.65 388.98 1415.33 392.101 1410.85 394.49C1406.36 396.879 1400.8 398.073 1394.15 398.073H1381.86V427.201H1362.04V346.058H1394.15C1400.64 346.058 1406.13 347.176 1410.61 349.41C1415.1 351.645 1418.46 354.727 1420.7 358.657C1422.94 362.587 1424.06 367.095 1424.06 372.181ZM1392.64 382.353C1396.43 382.353 1399.25 381.467 1401.11 379.694C1402.96 377.922 1403.89 375.418 1403.89 372.181C1403.89 368.945 1402.96 366.44 1401.11 364.668C1399.25 362.896 1396.43 362.009 1392.64 362.009H1381.86V382.353H1392.64Z" fill="#051B2E"/>
<path d="M1454.21 361.894V378.307H1480.76V393.565H1454.21V411.366H1484.24V427.201H1434.38V346.058H1484.24V361.894H1454.21Z" fill="#051B2E"/>
<path d="M1569.91 427.201H1550.09L1516.93 377.152V427.201H1497.11V346.058H1516.93L1550.09 396.339V346.058H1569.91V427.201Z" fill="#051B2E"/>
<path d="M1614.77 346.058C1623.35 346.058 1630.85 347.754 1637.27 351.144C1643.68 354.535 1648.63 359.312 1652.11 365.477C1655.66 371.565 1657.44 378.616 1657.44 386.63C1657.44 394.567 1655.66 401.618 1652.11 407.782C1648.63 413.947 1643.64 418.725 1637.15 422.115C1630.73 425.506 1623.28 427.201 1614.77 427.201H1584.28V346.058H1614.77ZM1613.5 410.094C1621 410.094 1626.83 408.052 1631.01 403.968C1635.18 399.884 1637.27 394.104 1637.27 386.63C1637.27 379.155 1635.18 373.337 1631.01 369.176C1626.83 365.015 1621 362.934 1613.5 362.934H1604.11V410.094H1613.5Z" fill="#051B2E"/>
<path d="M1688.34 346.058V427.201H1668.52V346.058H1688.34Z" fill="#051B2E"/>
<path d="M1733.2 346.058C1741.78 346.058 1749.28 347.754 1755.69 351.144C1762.11 354.535 1767.05 359.312 1770.53 365.477C1774.09 371.565 1775.86 378.616 1775.86 386.63C1775.86 394.567 1774.09 401.618 1770.53 407.782C1767.05 413.947 1762.07 418.725 1755.58 422.115C1749.16 425.506 1741.7 427.201 1733.2 427.201H1702.71V346.058H1733.2ZM1731.92 410.094C1739.42 410.094 1745.26 408.052 1749.43 403.968C1753.6 399.884 1755.69 394.104 1755.69 386.63C1755.69 379.155 1753.6 373.337 1749.43 369.176C1745.26 365.015 1739.42 362.934 1731.92 362.934H1722.53V410.094H1731.92Z" fill="#051B2E"/>
<path d="M1806.77 346.058V427.201H1786.94V346.058H1806.77Z" fill="#051B2E"/>
<path d="M1868.32 427.201L1840.96 391.369V427.201H1821.13V346.058H1840.96V381.659L1868.09 346.058H1891.39L1859.86 385.821L1892.55 427.201H1868.32Z" fill="#051B2E"/>
<path d="M1952.64 412.868H1922.26L1917.39 427.201H1896.64L1926.09 346.058H1949.04L1978.49 427.201H1957.5L1952.64 412.868ZM1947.53 397.611L1937.45 367.904L1927.48 397.611H1947.53Z" fill="#051B2E"/>
<path d="M2060.26 427.201H2040.43L2007.28 377.152V427.201H1987.45V346.058H2007.28L2040.43 396.339V346.058H2060.26V427.201Z" fill="#051B2E"/>
<path d="M2119.02 346.058V427.201H2099.2V346.058H2119.02Z" fill="#051B2E"/>
<path d="M2163.88 346.058C2172.46 346.058 2179.96 347.754 2186.37 351.144C2192.79 354.535 2197.73 359.312 2201.21 365.477C2204.76 371.565 2206.54 378.616 2206.54 386.63C2206.54 394.567 2204.76 401.618 2201.21 407.782C2197.73 413.947 2192.75 418.725 2186.25 422.115C2179.84 425.506 2172.38 427.201 2163.88 427.201H2133.39V346.058H2163.88ZM2162.6 410.094C2170.1 410.094 2175.94 408.052 2180.11 403.968C2184.28 399.884 2186.37 394.104 2186.37 386.63C2186.37 379.155 2184.28 373.337 2180.11 369.176C2175.94 365.015 2170.1 362.934 2162.6 362.934H2153.21V410.094H2162.6Z" fill="#051B2E"/>
</g>
<defs>
<linearGradient id="paint0_linear_836_524" x1="414.5" y1="72.5" x2="-389" y2="72.5" gradientUnits="userSpaceOnUse">
<stop stop-color="#62ACED"/>
<stop offset="1" stop-color="#10528B"/>
</linearGradient>
<linearGradient id="paint1_linear_836_524" x1="35" y1="244.292" x2="573.5" y2="244.292" gradientUnits="userSpaceOnUse">
<stop stop-color="#FFDE67"/>
<stop offset="1" stop-color="#FFA600"/>
</linearGradient>
<linearGradient id="paint2_linear_836_524" x1="6" y1="309.035" x2="377" y2="309.035" gradientUnits="userSpaceOnUse">
<stop stop-color="#FFDE67"/>
<stop offset="1" stop-color="#FFA600"/>
</linearGradient>
<linearGradient id="paint3_linear_836_524" x1="0" y1="343.951" x2="376" y2="343.951" gradientUnits="userSpaceOnUse">
<stop stop-color="#FFDE67"/>
<stop offset="1" stop-color="#FFA600"/>
</linearGradient>
<linearGradient id="paint4_linear_836_524" x1="488" y1="352.6" x2="-234.5" y2="352.596" gradientUnits="userSpaceOnUse">
<stop stop-color="#38E58C"/>
<stop offset="1" stop-color="#0D6437"/>
</linearGradient>
<linearGradient id="paint5_linear_836_524" x1="454" y1="419.103" x2="-287.5" y2="419.099" gradientUnits="userSpaceOnUse">
<stop stop-color="#38E58C"/>
<stop offset="1" stop-color="#0D6437"/>
</linearGradient>
<linearGradient id="paint6_linear_836_524" x1="396" y1="470.067" x2="-223" y2="470.063" gradientUnits="userSpaceOnUse">
<stop stop-color="#38E58C"/>
<stop offset="1" stop-color="#0D6437"/>
</linearGradient>
<clipPath id="clip0_836_524">
<rect width="2264" height="500" fill="white"/>
</clipPath>
<clipPath id="clip1_836_524">
<rect width="500" height="500" fill="white"/>
</clipPath>
</defs>
</svg>
