<svg width="400" height="113" viewBox="0 0 400 113" fill="none" xmlns="http://www.w3.org/2000/svg">
<path d="M0 85.434V24.0389H34.4219V37.2434H14.7845V85.434H0Z" fill="white"/>
<path d="M71.66 86.7883C65.3399 86.7883 59.8098 85.3588 55.0698 82.4997C50.3297 79.6406 46.643 75.7658 44.0096 70.8753C41.3762 65.9847 40.0596 60.5675 40.0596 54.6236C40.0596 48.454 41.3762 42.9992 44.0096 38.2591C46.7182 33.4438 50.3673 29.6442 54.9569 26.8604C59.6217 24.0765 64.8132 22.6846 70.5314 22.6846C75.3467 22.6846 79.5601 23.4746 83.1716 25.0546C86.8583 26.6347 89.9807 28.8166 92.5389 31.6004C95.097 34.3843 97.0532 37.5819 98.4075 41.1934C99.7618 44.7297 100.439 48.5669 100.439 52.705C100.439 53.7584 100.364 54.8493 100.213 55.9779C100.138 57.1065 99.9499 58.0846 99.649 58.9122H52.2483V47.6264H91.2974L84.3002 52.9307C84.9773 49.4697 84.7892 46.3849 83.7359 43.6763C82.7578 40.9677 81.1025 38.8234 78.7701 37.2434C76.5129 35.6634 73.7667 34.8733 70.5314 34.8733C67.4466 34.8733 64.7004 35.6634 62.2927 37.2434C59.8851 38.7482 58.0417 41.0053 56.7626 44.0149C55.5588 46.9492 55.1074 50.5231 55.4083 54.7365C55.1074 58.4984 55.5964 61.8466 56.8755 64.7809C58.2298 67.64 60.186 69.8595 62.7442 71.4396C65.3775 73.0196 68.3871 73.8096 71.7729 73.8096C75.1586 73.8096 78.0177 73.0948 80.3501 71.6653C82.7578 70.2357 84.6387 68.3171 85.993 65.9095L97.9561 71.7781C96.7522 74.7125 94.8713 77.3082 92.3131 79.5654C89.755 81.8226 86.7078 83.5907 83.1716 84.8697C79.7106 86.1488 75.8734 86.7883 71.66 86.7883Z" fill="white"/>
<path d="M140.2 86.7883C134.256 86.7883 128.951 85.3964 124.287 82.6126C119.622 79.7535 115.935 75.8787 113.226 70.9881C110.518 66.0976 109.163 60.6804 109.163 54.7365C109.163 48.7173 110.518 43.3001 113.226 38.4848C115.935 33.6695 119.622 29.8323 124.287 26.9732C129.027 24.1141 134.293 22.6846 140.087 22.6846C144.752 22.6846 148.89 23.6251 152.501 25.5061C156.188 27.3118 159.085 29.8699 161.191 33.1805L158.934 36.2276V0H173.719V85.434H159.724V73.5839L161.304 76.5182C159.198 79.8287 156.263 82.3869 152.501 84.1926C148.739 85.9231 144.639 86.7883 140.2 86.7883ZM141.78 73.2453C145.165 73.2453 148.137 72.4553 150.695 70.8753C153.254 69.2952 155.247 67.1133 156.677 64.3295C158.182 61.5456 158.934 58.348 158.934 54.7365C158.934 51.2002 158.182 48.0402 156.677 45.2563C155.247 42.3973 153.254 40.1777 150.695 38.5977C148.137 37.0177 145.165 36.2276 141.78 36.2276C138.469 36.2276 135.497 37.0553 132.864 38.7105C130.23 40.2906 128.161 42.4725 126.657 45.2563C125.227 47.965 124.512 51.125 124.512 54.7365C124.512 58.348 125.227 61.5456 126.657 64.3295C128.161 67.1133 130.23 69.2952 132.864 70.8753C135.497 72.4553 138.469 73.2453 141.78 73.2453Z" fill="white"/>
<path d="M206.095 86.7883C201.806 86.7883 198.082 86.0736 194.922 84.644C191.762 83.2145 189.317 81.183 187.586 78.5497C185.856 75.8411 184.99 72.7186 184.99 69.1824C184.99 65.7966 185.743 62.7871 187.248 60.1537C188.752 57.4451 191.085 55.1879 194.245 53.3822C197.405 51.5764 201.393 50.2974 206.208 49.545L226.297 46.2721V57.5579L209.029 60.4923C206.095 61.0189 203.913 61.9594 202.484 63.3137C201.054 64.668 200.339 66.4362 200.339 68.6181C200.339 70.7248 201.129 72.4177 202.709 73.6967C204.364 74.9006 206.396 75.5025 208.804 75.5025C211.888 75.5025 214.597 74.8629 216.929 73.5839C219.337 72.2296 221.18 70.3862 222.46 68.0538C223.814 65.7214 224.491 63.1633 224.491 60.3794V37.2434H191.423V24.0389H239.275V85.434H225.281V74.9382L228.441 74.7125C226.861 77.3458 224.98 79.5654 222.798 81.3711C220.616 83.1016 218.133 84.4559 215.349 85.434C212.566 86.3369 209.481 86.7883 206.095 86.7883Z" fill="white"/>
<path d="M293.005 85.434L274.835 59.4765L275.625 47.5135L290.748 24.0389H307.225L288.265 54.0593L309.934 85.434H293.005ZM252.94 85.434V0H267.725V85.434H252.94ZM262.082 60.0408V46.8364H283.638V60.0408H262.082Z" fill="white"/>
<path d="M341.438 86.7883C334.892 86.7883 329.174 85.246 324.284 82.1611C319.468 79.0011 316.158 74.7501 314.352 69.4081L325.412 64.1037C326.992 67.5647 329.174 70.2734 331.958 72.2296C334.817 74.1858 337.977 75.1639 341.438 75.1639C344.147 75.1639 346.291 74.562 347.871 73.3582C349.451 72.1543 350.241 70.5743 350.241 68.6181C350.241 67.4143 349.903 66.4362 349.225 65.6838C348.624 64.8561 347.758 64.179 346.63 63.6523C345.576 63.0504 344.41 62.5613 343.131 62.1852L333.087 59.3637C327.895 57.8589 323.945 55.5641 321.236 52.4793C318.603 49.3945 317.286 45.7454 317.286 41.532C317.286 37.7701 318.227 34.4971 320.108 31.7133C322.064 28.8542 324.735 26.6347 328.121 25.0546C331.582 23.4746 335.532 22.6846 339.971 22.6846C345.764 22.6846 350.881 24.0765 355.32 26.8604C359.759 29.6442 362.919 33.5567 364.8 38.5977L353.514 43.902C352.461 41.1182 350.693 38.8986 348.21 37.2434C345.727 35.5881 342.943 34.7605 339.858 34.7605C337.375 34.7605 335.419 35.3248 333.99 36.4534C332.56 37.5819 331.845 39.0491 331.845 40.8548C331.845 41.9834 332.146 42.9615 332.748 43.7892C333.35 44.6168 334.178 45.294 335.231 45.8206C336.36 46.3473 337.639 46.8364 339.068 47.2878L348.887 50.2221C353.928 51.7269 357.803 53.9841 360.511 56.9936C363.295 60.0032 364.687 63.6899 364.687 68.0538C364.687 71.7405 363.709 75.0134 361.753 77.8725C359.797 80.6564 357.088 82.8383 353.627 84.4183C350.166 85.9983 346.103 86.7883 341.438 86.7883Z" fill="white"/>
<path d="M382.369 85.434V37.2434H372.663V24.0389H397.153V85.434H382.369ZM382.369 17.1545V1.3543H397.153V17.1545H382.369Z" fill="white"/>
<path d="M14.3261 108.307C13.4357 108.307 12.6332 108.137 11.9184 107.799C11.2162 107.46 10.6268 107.015 10.1503 106.463C9.68633 105.912 9.35402 105.316 9.15338 104.676L10.2443 104.281C10.5955 105.234 11.1159 105.962 11.8056 106.463C12.5078 106.965 13.3417 107.216 14.3073 107.216C14.9468 107.216 15.5048 107.109 15.9813 106.896C16.4704 106.683 16.8529 106.382 17.1287 105.993C17.4046 105.604 17.5425 105.147 17.5425 104.62C17.5425 103.893 17.3356 103.328 16.9218 102.927C16.5205 102.526 15.9939 102.237 15.3418 102.062L12.7837 101.31C11.7429 101.009 10.9717 100.526 10.4701 99.8612C9.98101 99.184 9.73648 98.4191 9.73648 97.5664C9.73648 96.8265 9.91204 96.1807 10.2632 95.629C10.6268 95.0647 11.1159 94.6258 11.7303 94.3123C12.3448 93.9988 13.0407 93.842 13.8182 93.842C14.6333 93.842 15.3606 93.9988 16.0001 94.3123C16.6522 94.6132 17.1977 95.0145 17.6366 95.5161C18.088 96.0052 18.4078 96.5506 18.5959 97.1525L17.5237 97.5476C17.2102 96.6823 16.7275 96.0302 16.0754 95.5913C15.4233 95.1399 14.6772 94.9142 13.837 94.9142C13.2853 94.9142 12.7899 95.0208 12.351 95.234C11.9122 95.4471 11.5673 95.7481 11.3165 96.1368C11.0657 96.5256 10.9403 96.9833 10.9403 97.5099C10.9403 98.1495 11.1221 98.695 11.4858 99.1464C11.8495 99.5978 12.4576 99.9552 13.3103 100.219L15.6051 100.896C16.6083 101.197 17.3795 101.661 17.9187 102.288C18.4705 102.902 18.7464 103.661 18.7464 104.564C18.7464 105.303 18.5583 105.956 18.1821 106.52C17.8059 107.072 17.2792 107.51 16.6021 107.837C15.9374 108.15 15.1788 108.307 14.3261 108.307Z" fill="white"/>
<path d="M25.3595 108.307C24.6322 108.307 23.9738 108.15 23.3845 107.837C22.7951 107.523 22.3248 107.078 21.9737 106.501C21.6226 105.924 21.447 105.241 21.447 104.451V98.093H22.5756V104.394C22.5756 104.984 22.701 105.492 22.9518 105.918C23.2026 106.332 23.5349 106.651 23.9487 106.877C24.3751 107.09 24.8453 107.197 25.3595 107.197C25.8862 107.197 26.3564 107.09 26.7702 106.877C27.1966 106.651 27.5351 106.332 27.7859 105.918C28.0367 105.492 28.1621 104.984 28.1621 104.394V98.093H29.2907V104.451C29.2907 105.241 29.1152 105.924 28.7641 106.501C28.4129 107.078 27.9427 107.523 27.3533 107.837C26.7639 108.15 26.0993 108.307 25.3595 108.307Z" fill="white"/>
<path d="M32.4181 108.081V98.093H33.5467V99.9552L33.3398 99.7859C33.553 99.2216 33.9167 98.7765 34.4308 98.4504C34.9575 98.1244 35.5782 97.9614 36.293 97.9614H36.9325V99.09H36.1613C35.3462 99.09 34.7067 99.3533 34.2427 99.88C33.7787 100.394 33.5467 101.09 33.5467 101.968V108.081H32.4181Z" fill="white"/>
<path d="M41.6513 108.307C41.0243 108.307 40.4662 108.188 39.9772 107.949C39.4881 107.711 39.0994 107.379 38.811 106.952C38.5226 106.526 38.3784 106.037 38.3784 105.485C38.3784 104.996 38.4849 104.539 38.6981 104.112C38.9113 103.686 39.2561 103.322 39.7327 103.021C40.2092 102.708 40.8299 102.488 41.5948 102.363L45.6389 101.686V102.739L41.8958 103.36C41.0431 103.498 40.4412 103.755 40.09 104.131C39.7389 104.507 39.5634 104.946 39.5634 105.448C39.5634 105.987 39.764 106.426 40.1653 106.764C40.5791 107.103 41.0995 107.272 41.7265 107.272C42.4538 107.272 43.0871 107.109 43.6263 106.783C44.1655 106.445 44.5856 106.006 44.8865 105.466C45.1875 104.915 45.338 104.313 45.338 103.661V101.836C45.338 101.021 45.0997 100.375 44.6232 99.8988C44.1467 99.4097 43.5009 99.1652 42.6858 99.1652H39.2812V98.093H42.6858C43.4633 98.093 44.1341 98.2435 44.6984 98.5445C45.2627 98.8454 45.6954 99.2781 45.9963 99.8423C46.3098 100.394 46.4666 101.059 46.4666 101.836V108.081H45.338V105.993L45.4696 106.087C45.3066 106.488 45.037 106.858 44.6608 107.197C44.2846 107.523 43.8395 107.793 43.3253 108.006C42.8237 108.206 42.2657 108.307 41.6513 108.307Z" fill="white"/>
<path d="M53.0213 108.194C52.1937 108.194 51.5542 107.962 51.1027 107.498C50.6513 107.021 50.4256 106.332 50.4256 105.429V99.1652H48.5446V98.093H49.2594C49.6356 98.093 49.924 97.9802 50.1246 97.7545C50.3253 97.5287 50.4256 97.2215 50.4256 96.8328V95.7606H51.5542V98.093H53.7361V99.1652H51.5542V105.429C51.5542 105.705 51.5918 105.974 51.667 106.238C51.7548 106.501 51.9178 106.714 52.1561 106.877C52.3943 107.04 52.7392 107.122 53.1906 107.122C53.2909 107.122 53.4101 107.115 53.548 107.103C53.6985 107.09 53.8176 107.078 53.9054 107.065V108.081C53.7674 108.119 53.6107 108.144 53.4351 108.156C53.2596 108.181 53.1216 108.194 53.0213 108.194Z" fill="white"/>
<path d="M70.4736 108.194C70.1099 108.194 69.7902 108.163 69.5143 108.1C69.2384 108.037 68.9751 107.918 68.7243 107.742C68.4735 107.567 68.2039 107.31 67.9154 106.971C67.627 106.62 67.2822 106.169 66.8809 105.617L63.5892 100.952L61.1439 103.698V108.081H59.9213V94.0677H61.1439V102.476L60.7865 102.306L68.16 94.0677H69.74L64.0594 100.444L64.1159 99.579L68.3481 105.561C68.5989 105.924 68.8183 106.219 69.0064 106.445C69.2071 106.67 69.4202 106.84 69.6459 106.952C69.8717 107.053 70.1475 107.103 70.4736 107.103H70.7369V108.194H70.4736Z" fill="white"/>
<path d="M75.2664 108.307C74.6394 108.307 74.0814 108.188 73.5923 107.949C73.1033 107.711 72.7145 107.379 72.4261 106.952C72.1377 106.526 71.9935 106.037 71.9935 105.485C71.9935 104.996 72.1001 104.539 72.3133 104.112C72.5264 103.686 72.8713 103.322 73.3478 103.021C73.8243 102.708 74.445 102.488 75.21 102.363L79.2541 101.686V102.739L75.5109 103.36C74.6582 103.498 74.0563 103.755 73.7052 104.131C73.3541 104.507 73.1785 104.946 73.1785 105.448C73.1785 105.987 73.3791 106.426 73.7804 106.764C74.1942 107.103 74.7146 107.272 75.3416 107.272C76.0689 107.272 76.7022 107.109 77.2414 106.783C77.7806 106.445 78.2007 106.006 78.5017 105.466C78.8026 104.915 78.9531 104.313 78.9531 103.661V101.836C78.9531 101.021 78.7149 100.375 78.2383 99.8988C77.7618 99.4097 77.116 99.1652 76.3009 99.1652H72.8964V98.093H76.3009C77.0784 98.093 77.7493 98.2435 78.3136 98.5445C78.8779 98.8454 79.3105 99.2781 79.6115 99.8423C79.925 100.394 80.0817 101.059 80.0817 101.836V108.081H78.9531V105.993L79.0848 106.087C78.9218 106.488 78.6522 106.858 78.276 107.197C77.8998 107.523 77.4546 107.793 76.9405 108.006C76.4389 108.206 75.8809 108.307 75.2664 108.307Z" fill="white"/>
<path d="M88.1933 108.307C87.2779 108.307 86.4565 108.087 85.7292 107.648C85.0144 107.197 84.4815 106.583 84.1304 105.805L84.3185 105.542V108.081H83.1899V93.842H84.3185V100.614L84.1304 100.256C84.5066 99.5289 85.0458 98.952 85.748 98.5257C86.4628 98.0868 87.2779 97.8673 88.1933 97.8673C89.1338 97.8673 89.9739 98.093 90.7138 98.5445C91.4536 98.9959 92.0368 99.6166 92.4631 100.407C92.8895 101.197 93.1026 102.087 93.1026 103.078C93.1026 104.068 92.8895 104.959 92.4631 105.749C92.0368 106.539 91.4536 107.166 90.7138 107.63C89.9739 108.081 89.1338 108.307 88.1933 108.307ZM88.1557 107.178C88.8704 107.178 89.51 107.003 90.0743 106.651C90.6385 106.288 91.0837 105.799 91.4098 105.184C91.7358 104.557 91.8988 103.855 91.8988 103.078C91.8988 102.3 91.7358 101.604 91.4098 100.99C91.0837 100.375 90.6385 99.8925 90.0743 99.5414C89.51 99.1777 88.8704 98.9959 88.1557 98.9959C87.4409 98.9959 86.7951 99.1777 86.2183 99.5414C85.6414 99.8925 85.1837 100.375 84.8451 100.99C84.5066 101.604 84.3373 102.3 84.3373 103.078C84.3373 103.855 84.5066 104.557 84.8451 105.184C85.1837 105.799 85.6414 106.288 86.2183 106.651C86.7951 107.003 87.4409 107.178 88.1557 107.178Z" fill="white"/>
<path d="M98.6684 108.307C98.0414 108.307 97.4834 108.188 96.9943 107.949C96.5053 107.711 96.1166 107.379 95.8281 106.952C95.5397 106.526 95.3955 106.037 95.3955 105.485C95.3955 104.996 95.5021 104.539 95.7153 104.112C95.9285 103.686 96.2733 103.322 96.7498 103.021C97.2263 102.708 97.8471 102.488 98.612 102.363L102.656 101.686V102.739L98.9129 103.36C98.0602 103.498 97.4583 103.755 97.1072 104.131C96.7561 104.507 96.5805 104.946 96.5805 105.448C96.5805 105.987 96.7812 106.426 97.1824 106.764C97.5963 107.103 98.1167 107.272 98.7437 107.272C99.471 107.272 100.104 107.109 100.643 106.783C101.183 106.445 101.603 106.006 101.904 105.466C102.205 104.915 102.355 104.313 102.355 103.661V101.836C102.355 101.021 102.117 100.375 101.64 99.8988C101.164 99.4097 100.518 99.1652 99.703 99.1652H96.2984V98.093H99.703C100.48 98.093 101.151 98.2435 101.716 98.5445C102.28 98.8454 102.713 99.2781 103.013 99.8423C103.327 100.394 103.484 101.059 103.484 101.836V108.081H102.355V105.993L102.487 106.087C102.324 106.488 102.054 106.858 101.678 107.197C101.302 107.523 100.857 107.793 100.342 108.006C99.8409 108.206 99.2829 108.307 98.6684 108.307Z" fill="white"/>
<path d="M106.592 108.081V98.093H107.72V99.9552L107.514 99.7859C107.727 99.2216 108.09 98.7765 108.605 98.4504C109.131 98.1244 109.752 97.9614 110.467 97.9614H111.106V99.09H110.335C109.52 99.09 108.88 99.3533 108.416 99.88C107.952 100.394 107.72 101.09 107.72 101.968V108.081H106.592Z" fill="white"/>
<path d="M116.277 108.081V94.0677H117.312L122.541 101.855H122.033L127.281 94.0677H128.315V108.081H127.093V95.8547L127.394 96.024L122.315 103.604H122.259L117.18 96.024L117.5 95.8547V108.081H116.277Z" fill="white"/>
<path d="M134.488 108.307C133.861 108.307 133.303 108.188 132.814 107.949C132.325 107.711 131.936 107.379 131.648 106.952C131.359 106.526 131.215 106.037 131.215 105.485C131.215 104.996 131.322 104.539 131.535 104.112C131.748 103.686 132.093 103.322 132.569 103.021C133.046 102.708 133.666 102.488 134.431 102.363L138.476 101.686V102.739L134.732 103.36C133.88 103.498 133.278 103.755 132.927 104.131C132.576 104.507 132.4 104.946 132.4 105.448C132.4 105.987 132.601 106.426 133.002 106.764C133.416 107.103 133.936 107.272 134.563 107.272C135.29 107.272 135.924 107.109 136.463 106.783C137.002 106.445 137.422 106.006 137.723 105.466C138.024 104.915 138.175 104.313 138.175 103.661V101.836C138.175 101.021 137.936 100.375 137.46 99.8988C136.983 99.4097 136.337 99.1652 135.522 99.1652H132.118V98.093H135.522C136.3 98.093 136.971 98.2435 137.535 98.5445C138.099 98.8454 138.532 99.2781 138.833 99.8423C139.146 100.394 139.303 101.059 139.303 101.836V108.081H138.175V105.993L138.306 106.087C138.143 106.488 137.874 106.858 137.497 107.197C137.121 107.523 136.676 107.793 136.162 108.006C135.66 108.206 135.102 108.307 134.488 108.307Z" fill="white"/>
<path d="M142.411 108.081V93.842H143.54V98.093H146.493C147.271 98.093 147.935 98.2435 148.487 98.5445C149.051 98.8454 149.484 99.2781 149.785 99.8423C150.098 100.394 150.255 101.059 150.255 101.836V108.081H149.126V101.836C149.126 101.021 148.888 100.375 148.412 99.8988C147.948 99.4097 147.308 99.1652 146.493 99.1652H143.54V108.081H142.411Z" fill="white"/>
<path d="M156.035 108.307C155.408 108.307 154.85 108.188 154.361 107.949C153.871 107.711 153.483 107.379 153.194 106.952C152.906 106.526 152.762 106.037 152.762 105.485C152.762 104.996 152.868 104.539 153.081 104.112C153.295 103.686 153.639 103.322 154.116 103.021C154.593 102.708 155.213 102.488 155.978 102.363L160.022 101.686V102.739L156.279 103.36C155.426 103.498 154.824 103.755 154.473 104.131C154.122 104.507 153.947 104.946 153.947 105.448C153.947 105.987 154.147 106.426 154.549 106.764C154.962 107.103 155.483 107.272 156.11 107.272C156.837 107.272 157.47 107.109 158.01 106.783C158.549 106.445 158.969 106.006 159.27 105.466C159.571 104.915 159.721 104.313 159.721 103.661V101.836C159.721 101.021 159.483 100.375 159.007 99.8988C158.53 99.4097 157.884 99.1652 157.069 99.1652H153.665V98.093H157.069C157.847 98.093 158.517 98.2435 159.082 98.5445C159.646 98.8454 160.079 99.2781 160.38 99.8423C160.693 100.394 160.85 101.059 160.85 101.836V108.081H159.721V105.993L159.853 106.087C159.69 106.488 159.42 106.858 159.044 107.197C158.668 107.523 158.223 107.793 157.709 108.006C157.207 108.206 156.649 108.307 156.035 108.307Z" fill="white"/>
<path d="M167.325 108.307C166.397 108.307 165.582 108.075 164.88 107.611C164.178 107.147 163.663 106.514 163.337 105.711L164.315 105.26C164.629 105.874 165.049 106.363 165.576 106.727C166.102 107.078 166.685 107.253 167.325 107.253C167.977 107.253 168.523 107.097 168.961 106.783C169.413 106.457 169.639 106.031 169.639 105.504C169.639 105.178 169.551 104.902 169.375 104.676C169.212 104.451 168.999 104.269 168.736 104.131C168.472 103.981 168.19 103.868 167.889 103.792L166.347 103.36C165.482 103.122 164.842 102.77 164.428 102.306C164.027 101.842 163.826 101.297 163.826 100.67C163.826 100.106 163.971 99.6166 164.259 99.2028C164.547 98.7765 164.936 98.4504 165.425 98.2247C165.914 97.9864 166.453 97.8673 167.043 97.8673C167.87 97.8673 168.623 98.0805 169.3 98.5069C169.977 98.9332 170.454 99.51 170.73 100.237L169.714 100.708C169.451 100.143 169.081 99.7044 168.604 99.3909C168.128 99.0649 167.601 98.9019 167.024 98.9019C166.422 98.9019 165.933 99.0649 165.557 99.3909C165.181 99.7044 164.993 100.106 164.993 100.595C164.993 100.908 165.068 101.172 165.218 101.385C165.369 101.585 165.563 101.755 165.801 101.893C166.052 102.018 166.309 102.118 166.573 102.194L168.247 102.683C169.062 102.908 169.689 103.266 170.128 103.755C170.579 104.244 170.805 104.821 170.805 105.485C170.805 106.024 170.654 106.507 170.353 106.934C170.052 107.36 169.639 107.699 169.112 107.949C168.585 108.188 167.99 108.307 167.325 108.307Z" fill="white"/>
<path d="M173.51 108.081V98.093H174.638V108.081H173.51ZM173.51 96.1368V94.0677H174.638V96.1368H173.51Z" fill="white"/>
<path d="M181.102 108.307C180.174 108.307 179.359 108.075 178.656 107.611C177.954 107.147 177.44 106.514 177.114 105.711L178.092 105.26C178.406 105.874 178.826 106.363 179.352 106.727C179.879 107.078 180.462 107.253 181.102 107.253C181.754 107.253 182.299 107.097 182.738 106.783C183.19 106.457 183.415 106.031 183.415 105.504C183.415 105.178 183.328 104.902 183.152 104.676C182.989 104.451 182.776 104.269 182.512 104.131C182.249 103.981 181.967 103.868 181.666 103.792L180.124 103.36C179.258 103.122 178.619 102.77 178.205 102.306C177.804 101.842 177.603 101.297 177.603 100.67C177.603 100.106 177.747 99.6166 178.036 99.2028C178.324 98.7765 178.713 98.4504 179.202 98.2247C179.691 97.9864 180.23 97.8673 180.82 97.8673C181.647 97.8673 182.4 98.0805 183.077 98.5069C183.754 98.9332 184.23 99.51 184.506 100.237L183.491 100.708C183.227 100.143 182.857 99.7044 182.381 99.3909C181.904 99.0649 181.378 98.9019 180.801 98.9019C180.199 98.9019 179.71 99.0649 179.334 99.3909C178.957 99.7044 178.769 100.106 178.769 100.595C178.769 100.908 178.845 101.172 178.995 101.385C179.145 101.585 179.34 101.755 179.578 101.893C179.829 102.018 180.086 102.118 180.349 102.194L182.023 102.683C182.838 102.908 183.465 103.266 183.904 103.755C184.356 104.244 184.582 104.821 184.582 105.485C184.582 106.024 184.431 106.507 184.13 106.934C183.829 107.36 183.415 107.699 182.889 107.949C182.362 108.188 181.766 108.307 181.102 108.307Z" fill="white"/>
<path d="M189.285 108.081L185.861 98.093H187.122L190.112 107.141H189.623L192.332 98.093H193.479L196.188 107.141H195.699L198.709 98.093H199.969L196.527 108.081H195.379L192.765 99.3533H193.047L190.432 108.081H189.285Z" fill="white"/>
<path d="M204.327 108.307C203.7 108.307 203.141 108.188 202.652 107.949C202.163 107.711 201.775 107.379 201.486 106.952C201.198 106.526 201.054 106.037 201.054 105.485C201.054 104.996 201.16 104.539 201.373 104.112C201.587 103.686 201.931 103.322 202.408 103.021C202.884 102.708 203.505 102.488 204.27 102.363L208.314 101.686V102.739L204.571 103.36C203.718 103.498 203.116 103.755 202.765 104.131C202.414 104.507 202.239 104.946 202.239 105.448C202.239 105.987 202.439 106.426 202.841 106.764C203.254 107.103 203.775 107.272 204.402 107.272C205.129 107.272 205.762 107.109 206.302 106.783C206.841 106.445 207.261 106.006 207.562 105.466C207.863 104.915 208.013 104.313 208.013 103.661V101.836C208.013 101.021 207.775 100.375 207.298 99.8988C206.822 99.4097 206.176 99.1652 205.361 99.1652H201.956V98.093H205.361C206.139 98.093 206.809 98.2435 207.374 98.5445C207.938 98.8454 208.371 99.2781 208.672 99.8423C208.985 100.394 209.142 101.059 209.142 101.836V108.081H208.013V105.993L208.145 106.087C207.982 106.488 207.712 106.858 207.336 107.197C206.96 107.523 206.515 107.793 206.001 108.006C205.499 108.206 204.941 108.307 204.327 108.307Z" fill="white"/>
<path d="M214.921 108.081V95.1963H211.009V94.0677H220.037V95.1963H216.144V108.081H214.921Z" fill="white"/>
<path d="M225.33 108.307C224.327 108.307 223.436 108.081 222.659 107.63C221.882 107.166 221.267 106.539 220.816 105.749C220.377 104.946 220.157 104.049 220.157 103.059C220.157 102.068 220.37 101.184 220.797 100.407C221.223 99.6166 221.8 98.9959 222.527 98.5445C223.255 98.093 224.07 97.8673 224.973 97.8673C225.662 97.8673 226.283 97.9927 226.835 98.2435C227.399 98.4943 227.882 98.8454 228.283 99.2969C228.697 99.7358 229.01 100.244 229.224 100.82C229.449 101.385 229.562 101.98 229.562 102.607C229.562 102.733 229.556 102.864 229.543 103.002C229.531 103.14 229.512 103.285 229.487 103.435H220.816V102.4H228.847L228.34 102.795C228.415 102.068 228.308 101.416 228.02 100.839C227.731 100.25 227.318 99.7859 226.778 99.4473C226.252 99.0962 225.65 98.9207 224.973 98.9207C224.295 98.9207 223.675 99.1025 223.11 99.4662C222.546 99.8173 222.101 100.306 221.775 100.933C221.449 101.548 221.298 102.263 221.324 103.078C221.298 103.893 221.455 104.614 221.794 105.241C222.145 105.868 222.628 106.363 223.242 106.727C223.857 107.078 224.553 107.253 225.33 107.253H228.866V108.307H225.33Z" fill="white"/>
<path d="M232.254 108.081V93.842H233.382V104.018L232.799 103.962L238.706 98.093H240.248L236.223 102.118L240.624 108.081H239.213L235.038 102.476L235.79 102.495L233.081 105.278L233.382 104.507V108.081H232.254Z" fill="white"/>
<path d="M242.485 108.081V98.093H246.567C247.344 98.093 248.009 98.2435 248.561 98.5445C249.125 98.8454 249.558 99.2781 249.859 99.8423C250.172 100.394 250.329 101.059 250.329 101.836V108.081H249.2V101.836C249.2 101.021 248.962 100.375 248.486 99.8988C248.022 99.4097 247.382 99.1652 246.567 99.1652H243.614V108.081H242.485Z" fill="white"/>
<path d="M257.895 108.307C256.942 108.307 256.083 108.081 255.319 107.63C254.554 107.178 253.945 106.557 253.494 105.767C253.055 104.965 252.836 104.068 252.836 103.078C252.836 102.087 253.055 101.197 253.494 100.407C253.945 99.6166 254.547 98.9959 255.3 98.5445C256.065 98.093 256.93 97.8673 257.895 97.8673C258.848 97.8673 259.707 98.093 260.472 98.5445C261.237 98.9959 261.839 99.6166 262.278 100.407C262.717 101.184 262.936 102.074 262.936 103.078C262.936 104.081 262.711 104.977 262.259 105.767C261.808 106.557 261.2 107.178 260.435 107.63C259.682 108.081 258.836 108.307 257.895 108.307ZM257.895 107.197C258.61 107.197 259.256 107.021 259.833 106.67C260.422 106.307 260.886 105.811 261.225 105.184C261.563 104.557 261.733 103.855 261.733 103.078C261.733 102.3 261.563 101.604 261.225 100.99C260.886 100.375 260.429 99.8862 259.852 99.5226C259.275 99.1589 258.623 98.9771 257.895 98.9771C257.168 98.9771 256.51 99.1589 255.92 99.5226C255.344 99.8737 254.886 100.363 254.547 100.99C254.209 101.604 254.039 102.3 254.039 103.078C254.039 103.855 254.209 104.557 254.547 105.184C254.898 105.811 255.362 106.307 255.939 106.67C256.516 107.021 257.168 107.197 257.895 107.197Z" fill="white"/>
<path d="M267.924 108.194C267.172 108.194 266.602 108.012 266.213 107.648C265.837 107.285 265.648 106.777 265.648 106.125V93.842H266.777V106.068C266.777 106.821 267.191 107.197 268.018 107.197H268.188V108.194H267.924Z" fill="white"/>
<path d="M275.162 108.307C274.209 108.307 273.35 108.081 272.585 107.63C271.82 107.178 271.212 106.557 270.761 105.767C270.322 104.965 270.102 104.068 270.102 103.078C270.102 102.087 270.322 101.197 270.761 100.407C271.212 99.6166 271.814 98.9959 272.567 98.5445C273.331 98.093 274.197 97.8673 275.162 97.8673C276.115 97.8673 276.974 98.093 277.739 98.5445C278.504 98.9959 279.106 99.6166 279.545 100.407C279.984 101.184 280.203 102.074 280.203 103.078C280.203 104.081 279.978 104.977 279.526 105.767C279.075 106.557 278.467 107.178 277.702 107.63C276.949 108.081 276.103 108.307 275.162 108.307ZM275.162 107.197C275.877 107.197 276.523 107.021 277.1 106.67C277.689 106.307 278.153 105.811 278.492 105.184C278.83 104.557 278.999 103.855 278.999 103.078C278.999 102.3 278.83 101.604 278.492 100.99C278.153 100.375 277.695 99.8862 277.118 99.5226C276.542 99.1589 275.89 98.9771 275.162 98.9771C274.435 98.9771 273.777 99.1589 273.187 99.5226C272.61 99.8737 272.153 100.363 271.814 100.99C271.476 101.604 271.306 102.3 271.306 103.078C271.306 103.855 271.476 104.557 271.814 105.184C272.165 105.811 272.629 106.307 273.206 106.67C273.783 107.021 274.435 107.197 275.162 107.197Z" fill="white"/>
<path d="M284.081 112.219V111.109H287.806C288.834 111.109 289.649 110.846 290.251 110.319C290.853 109.805 291.154 109.103 291.154 108.213V105.166L291.361 105.429C291.01 106.206 290.477 106.821 289.762 107.272C289.047 107.711 288.251 107.931 287.373 107.931C286.445 107.931 285.611 107.705 284.871 107.253C284.132 106.802 283.549 106.194 283.122 105.429C282.708 104.664 282.501 103.817 282.501 102.89C282.501 101.962 282.708 101.121 283.122 100.369C283.549 99.6041 284.125 98.9959 284.853 98.5445C285.593 98.093 286.433 97.8673 287.373 97.8673C288.251 97.8673 289.041 98.0868 289.743 98.5257C290.445 98.952 290.985 99.5289 291.361 100.256L291.154 100.614V98.093H292.283V108.213C292.283 109.015 292.094 109.717 291.718 110.319C291.355 110.921 290.834 111.385 290.157 111.711C289.492 112.05 288.709 112.219 287.806 112.219H284.081ZM287.411 106.802C288.113 106.802 288.74 106.626 289.292 106.275C289.856 105.924 290.301 105.454 290.627 104.865C290.953 104.263 291.116 103.604 291.116 102.89C291.116 102.175 290.953 101.523 290.627 100.933C290.301 100.344 289.856 99.8737 289.292 99.5226C288.74 99.1715 288.113 98.9959 287.411 98.9959C286.696 98.9959 286.057 99.1715 285.492 99.5226C284.928 99.8737 284.489 100.344 284.176 100.933C283.862 101.523 283.705 102.175 283.705 102.89C283.705 103.604 283.862 104.263 284.176 104.865C284.489 105.454 284.922 105.924 285.473 106.275C286.038 106.626 286.684 106.802 287.411 106.802Z" fill="white"/>
<path d="M295.388 108.081V98.093H296.516V108.081H295.388ZM295.388 96.1368V94.0677H296.516V96.1368H295.388Z" fill="white"/>
<path d="M302.924 108.081V94.0677H307.626C308.517 94.0677 309.3 94.2433 309.978 94.5944C310.655 94.9455 311.181 95.4409 311.558 96.0804C311.946 96.7199 312.141 97.4598 312.141 98.2999C312.141 99.1401 311.946 99.88 311.558 100.52C311.181 101.146 310.655 101.642 309.978 102.005C309.313 102.357 308.529 102.532 307.626 102.532H304.147V108.081H302.924ZM304.147 101.404H307.664C308.303 101.404 308.868 101.278 309.357 101.027C309.846 100.764 310.228 100.4 310.504 99.9364C310.78 99.4599 310.918 98.9081 310.918 98.2811C310.918 97.6541 310.78 97.1149 310.504 96.6635C310.228 96.1995 309.846 95.8421 309.357 95.5913C308.868 95.328 308.303 95.1963 307.664 95.1963H304.147V101.404Z" fill="white"/>
<path d="M319.03 108.307C318.027 108.307 317.136 108.081 316.359 107.63C315.581 107.166 314.967 106.539 314.516 105.749C314.077 104.946 313.857 104.049 313.857 103.059C313.857 102.068 314.07 101.184 314.497 100.407C314.923 99.6166 315.5 98.9959 316.227 98.5445C316.955 98.093 317.77 97.8673 318.672 97.8673C319.362 97.8673 319.983 97.9927 320.535 98.2435C321.099 98.4943 321.582 98.8454 321.983 99.2969C322.397 99.7358 322.71 100.244 322.924 100.82C323.149 101.385 323.262 101.98 323.262 102.607C323.262 102.733 323.256 102.864 323.243 103.002C323.231 103.14 323.212 103.285 323.187 103.435H314.516V102.4H322.547L322.039 102.795C322.115 102.068 322.008 101.416 321.72 100.839C321.431 100.25 321.017 99.7859 320.478 99.4473C319.952 99.0962 319.35 98.9207 318.672 98.9207C317.995 98.9207 317.375 99.1025 316.81 99.4662C316.246 99.8173 315.801 100.306 315.475 100.933C315.149 101.548 314.998 102.263 315.023 103.078C314.998 103.893 315.155 104.614 315.494 105.241C315.845 105.868 316.328 106.363 316.942 106.727C317.556 107.078 318.252 107.253 319.03 107.253H322.566V108.307H319.03Z" fill="white"/>
<path d="M325.954 108.081V98.093H330.035C330.813 98.093 331.477 98.2435 332.029 98.5445C332.594 98.8454 333.026 99.2781 333.327 99.8423C333.641 100.394 333.797 101.059 333.797 101.836V108.081H332.669V101.836C332.669 101.021 332.431 100.375 331.954 99.8988C331.49 99.4097 330.85 99.1652 330.035 99.1652H327.082V108.081H325.954Z" fill="white"/>
<path d="M341.213 108.307C340.285 108.307 339.445 108.081 338.693 107.63C337.953 107.166 337.37 106.539 336.944 105.749C336.517 104.959 336.304 104.068 336.304 103.078C336.304 102.087 336.517 101.197 336.944 100.407C337.37 99.6166 337.953 98.9959 338.693 98.5445C339.445 98.093 340.285 97.8673 341.213 97.8673C342.129 97.8673 342.944 98.0868 343.659 98.5257C344.373 98.952 344.913 99.5289 345.276 100.256L345.088 100.614V93.842H346.217V108.081H345.088V105.542L345.276 105.805C344.925 106.583 344.386 107.197 343.659 107.648C342.944 108.087 342.129 108.307 341.213 108.307ZM341.251 107.178C341.978 107.178 342.624 107.003 343.188 106.651C343.765 106.288 344.223 105.799 344.562 105.184C344.9 104.557 345.069 103.855 345.069 103.078C345.069 102.3 344.9 101.604 344.562 100.99C344.223 100.375 343.765 99.8925 343.188 99.5414C342.624 99.1777 341.978 98.9959 341.251 98.9959C340.536 98.9959 339.897 99.1777 339.332 99.5414C338.768 99.8925 338.323 100.375 337.997 100.99C337.671 101.604 337.508 102.3 337.508 103.078C337.508 103.855 337.671 104.557 337.997 105.184C338.323 105.799 338.768 106.288 339.332 106.651C339.897 107.003 340.536 107.178 341.251 107.178Z" fill="white"/>
<path d="M349.337 108.081V98.093H350.466V108.081H349.337ZM349.337 96.1368V94.0677H350.466V96.1368H349.337Z" fill="white"/>
<path d="M358.058 108.307C357.13 108.307 356.29 108.081 355.537 107.63C354.797 107.166 354.214 106.539 353.788 105.749C353.362 104.959 353.148 104.068 353.148 103.078C353.148 102.087 353.362 101.197 353.788 100.407C354.214 99.6166 354.797 98.9959 355.537 98.5445C356.29 98.093 357.13 97.8673 358.058 97.8673C358.973 97.8673 359.788 98.0868 360.503 98.5257C361.218 98.952 361.757 99.5289 362.121 100.256L361.933 100.614V93.842H363.061V108.081H361.933V105.542L362.121 105.805C361.769 106.583 361.23 107.197 360.503 107.648C359.788 108.087 358.973 108.307 358.058 108.307ZM358.095 107.178C358.823 107.178 359.468 107.003 360.033 106.651C360.61 106.288 361.067 105.799 361.406 105.184C361.744 104.557 361.914 103.855 361.914 103.078C361.914 102.3 361.744 101.604 361.406 100.99C361.067 100.375 360.61 99.8925 360.033 99.5414C359.468 99.1777 358.823 98.9959 358.095 98.9959C357.381 98.9959 356.741 99.1777 356.177 99.5414C355.612 99.8925 355.167 100.375 354.841 100.99C354.515 101.604 354.352 102.3 354.352 103.078C354.352 103.855 354.515 104.557 354.841 105.184C355.167 105.799 355.612 106.288 356.177 106.651C356.741 107.003 357.381 107.178 358.095 107.178Z" fill="white"/>
<path d="M366.182 108.081V98.093H367.31V108.081H366.182ZM366.182 96.1368V94.0677H367.31V96.1368H366.182Z" fill="white"/>
<path d="M370.406 108.081V93.842H371.535V104.018L370.952 103.962L376.858 98.093H378.401L374.375 102.118L378.777 108.081H377.366L373.19 102.476L373.943 102.495L371.234 105.278L371.535 104.507V108.081H370.406Z" fill="white"/>
<path d="M383.497 108.307C382.87 108.307 382.312 108.188 381.823 107.949C381.334 107.711 380.945 107.379 380.657 106.952C380.368 106.526 380.224 106.037 380.224 105.485C380.224 104.996 380.331 104.539 380.544 104.112C380.757 103.686 381.102 103.322 381.578 103.021C382.055 102.708 382.676 102.488 383.441 102.363L387.485 101.686V102.739L383.742 103.36C382.889 103.498 382.287 103.755 381.936 104.131C381.585 104.507 381.409 104.946 381.409 105.448C381.409 105.987 381.61 106.426 382.011 106.764C382.425 107.103 382.945 107.272 383.572 107.272C384.3 107.272 384.933 107.109 385.472 106.783C386.011 106.445 386.431 106.006 386.732 105.466C387.033 104.915 387.184 104.313 387.184 103.661V101.836C387.184 101.021 386.946 100.375 386.469 99.8988C385.992 99.4097 385.347 99.1652 384.532 99.1652H381.127V98.093H384.532C385.309 98.093 385.98 98.2435 386.544 98.5445C387.109 98.8454 387.541 99.2781 387.842 99.8423C388.156 100.394 388.312 101.059 388.312 101.836V108.081H387.184V105.993L387.315 106.087C387.152 106.488 386.883 106.858 386.507 107.197C386.13 107.523 385.685 107.793 385.171 108.006C384.67 108.206 384.112 108.307 383.497 108.307Z" fill="white"/>
<path d="M391.421 108.081V98.093H395.502C396.28 98.093 396.944 98.2435 397.496 98.5445C398.06 98.8454 398.493 99.2781 398.794 99.8423C399.107 100.394 399.264 101.059 399.264 101.836V108.081H398.136V101.836C398.136 101.021 397.897 100.375 397.421 99.8988C396.957 99.4097 396.317 99.1652 395.502 99.1652H392.549V108.081H391.421Z" fill="white"/>
</svg>
