<svg width="512" height="512" viewBox="0 0 512 512" fill="none" xmlns="http://www.w3.org/2000/svg">
<path d="M56 285.434V224.039H90.4219V237.243H70.7845V285.434H56Z" fill="#10528B"/>
<path d="M127.66 286.788C121.34 286.788 115.81 285.359 111.07 282.5C106.33 279.641 102.643 275.766 100.01 270.875C97.3762 265.985 96.0596 260.568 96.0596 254.624C96.0596 248.454 97.3762 242.999 100.01 238.259C102.718 233.444 106.367 229.644 110.957 226.86C115.622 224.077 120.813 222.685 126.531 222.685C131.347 222.685 135.56 223.475 139.172 225.055C142.858 226.635 145.981 228.817 148.539 231.6C151.097 234.384 153.053 237.582 154.408 241.193C155.762 244.73 156.439 248.567 156.439 252.705C156.439 253.758 156.364 254.849 156.213 255.978C156.138 257.107 155.95 258.085 155.649 258.912H108.248V247.626H147.297L140.3 252.931C140.977 249.47 140.789 246.385 139.736 243.676C138.758 240.968 137.103 238.823 134.77 237.243C132.513 235.663 129.767 234.873 126.531 234.873C123.447 234.873 120.7 235.663 118.293 237.243C115.885 238.748 114.042 241.005 112.763 244.015C111.559 246.949 111.107 250.523 111.408 254.736C111.107 258.498 111.596 261.847 112.876 264.781C114.23 267.64 116.186 269.86 118.744 271.44C121.378 273.02 124.387 273.81 127.773 273.81C131.159 273.81 134.018 273.095 136.35 271.665C138.758 270.236 140.639 268.317 141.993 265.909L153.956 271.778C152.752 274.712 150.871 277.308 148.313 279.565C145.755 281.823 142.708 283.591 139.172 284.87C135.711 286.149 131.873 286.788 127.66 286.788Z" fill="#10528B"/>
<path d="M196.2 286.788C190.256 286.788 184.951 285.396 180.287 282.613C175.622 279.753 171.935 275.879 169.226 270.988C166.518 266.098 165.163 260.68 165.163 254.736C165.163 248.717 166.518 243.3 169.226 238.485C171.935 233.67 175.622 229.832 180.287 226.973C185.027 224.114 190.293 222.685 196.087 222.685C200.752 222.685 204.89 223.625 208.501 225.506C212.188 227.312 215.085 229.87 217.191 233.18L214.934 236.228V200H229.719V285.434H215.724V273.584L217.304 276.518C215.198 279.829 212.263 282.387 208.501 284.193C204.739 285.923 200.639 286.788 196.2 286.788ZM197.78 273.245C201.165 273.245 204.137 272.455 206.695 270.875C209.254 269.295 211.247 267.113 212.677 264.329C214.182 261.546 214.934 258.348 214.934 254.736C214.934 251.2 214.182 248.04 212.677 245.256C211.247 242.397 209.254 240.178 206.695 238.598C204.137 237.018 201.165 236.228 197.78 236.228C194.469 236.228 191.497 237.055 188.864 238.711C186.23 240.291 184.161 242.472 182.657 245.256C181.227 247.965 180.512 251.125 180.512 254.736C180.512 258.348 181.227 261.546 182.657 264.329C184.161 267.113 186.23 269.295 188.864 270.875C191.497 272.455 194.469 273.245 197.78 273.245Z" fill="#10528B"/>
<path d="M262.095 286.788C257.806 286.788 254.082 286.074 250.922 284.644C247.762 283.214 245.317 281.183 243.586 278.55C241.856 275.841 240.99 272.719 240.99 269.182C240.99 265.797 241.743 262.787 243.248 260.154C244.752 257.445 247.085 255.188 250.245 253.382C253.405 251.576 257.393 250.297 262.208 249.545L282.297 246.272V257.558L265.029 260.492C262.095 261.019 259.913 261.959 258.484 263.314C257.054 264.668 256.339 266.436 256.339 268.618C256.339 270.725 257.129 272.418 258.709 273.697C260.364 274.901 262.396 275.502 264.804 275.502C267.888 275.502 270.597 274.863 272.929 273.584C275.337 272.23 277.18 270.386 278.46 268.054C279.814 265.721 280.491 263.163 280.491 260.379V237.243H247.423V224.039H295.275V285.434H281.281V274.938L284.441 274.712C282.861 277.346 280.98 279.565 278.798 281.371C276.616 283.102 274.133 284.456 271.349 285.434C268.566 286.337 265.481 286.788 262.095 286.788Z" fill="#10528B"/>
<path d="M349.005 285.434L330.835 259.477L331.625 247.514L346.748 224.039H363.225L344.265 254.059L365.934 285.434H349.005ZM308.94 285.434V200H323.725V285.434H308.94ZM318.082 260.041V246.836H339.638V260.041H318.082Z" fill="#10528B"/>
<path d="M397.438 286.788C390.892 286.788 385.174 285.246 380.284 282.161C375.468 279.001 372.158 274.75 370.352 269.408L381.412 264.104C382.992 267.565 385.174 270.273 387.958 272.23C390.817 274.186 393.977 275.164 397.438 275.164C400.147 275.164 402.291 274.562 403.871 273.358C405.451 272.154 406.241 270.574 406.241 268.618C406.241 267.414 405.903 266.436 405.225 265.684C404.624 264.856 403.758 264.179 402.63 263.652C401.576 263.05 400.41 262.561 399.131 262.185L389.087 259.364C383.895 257.859 379.945 255.564 377.236 252.479C374.603 249.394 373.286 245.745 373.286 241.532C373.286 237.77 374.227 234.497 376.108 231.713C378.064 228.854 380.735 226.635 384.121 225.055C387.582 223.475 391.532 222.685 395.971 222.685C401.764 222.685 406.881 224.077 411.32 226.86C415.759 229.644 418.919 233.557 420.8 238.598L409.514 243.902C408.461 241.118 406.693 238.899 404.21 237.243C401.727 235.588 398.943 234.76 395.858 234.76C393.375 234.76 391.419 235.325 389.99 236.453C388.56 237.582 387.845 239.049 387.845 240.855C387.845 241.983 388.146 242.962 388.748 243.789C389.35 244.617 390.178 245.294 391.231 245.821C392.36 246.347 393.639 246.836 395.068 247.288L404.887 250.222C409.928 251.727 413.803 253.984 416.511 256.994C419.295 260.003 420.687 263.69 420.687 268.054C420.687 271.741 419.709 275.013 417.753 277.873C415.797 280.656 413.088 282.838 409.627 284.418C406.166 285.998 402.103 286.788 397.438 286.788Z" fill="#10528B"/>
<path d="M438.369 285.434V237.243H428.663V224.039H453.153V285.434H438.369ZM438.369 217.155V201.354H453.153V217.155H438.369Z" fill="#10528B"/>
<path d="M70.3261 308.307C69.4357 308.307 68.6332 308.137 67.9184 307.799C67.2162 307.46 66.6268 307.015 66.1503 306.463C65.6863 305.912 65.354 305.316 65.1534 304.676L66.2443 304.281C66.5955 305.234 67.1159 305.962 67.8056 306.463C68.5078 306.965 69.3417 307.216 70.3073 307.216C70.9468 307.216 71.5048 307.109 71.9813 306.896C72.4704 306.683 72.8529 306.382 73.1287 305.993C73.4046 305.604 73.5425 305.147 73.5425 304.62C73.5425 303.893 73.3356 303.328 72.9218 302.927C72.5205 302.526 71.9939 302.237 71.3418 302.062L68.7837 301.31C67.7429 301.009 66.9717 300.526 66.4701 299.861C65.981 299.184 65.7365 298.419 65.7365 297.566C65.7365 296.827 65.912 296.181 66.2632 295.629C66.6268 295.065 67.1159 294.626 67.7303 294.312C68.3448 293.999 69.0407 293.842 69.8182 293.842C70.6333 293.842 71.3606 293.999 72.0001 294.312C72.6522 294.613 73.1977 295.015 73.6366 295.516C74.088 296.005 74.4078 296.551 74.5959 297.153L73.5237 297.548C73.2102 296.682 72.7275 296.03 72.0754 295.591C71.4233 295.14 70.6772 294.914 69.837 294.914C69.2853 294.914 68.7899 295.021 68.351 295.234C67.9122 295.447 67.5673 295.748 67.3165 296.137C67.0657 296.526 66.9403 296.983 66.9403 297.51C66.9403 298.149 67.1221 298.695 67.4858 299.146C67.8495 299.598 68.4576 299.955 69.3103 300.219L71.6051 300.896C72.6083 301.197 73.3795 301.661 73.9187 302.288C74.4705 302.902 74.7464 303.661 74.7464 304.564C74.7464 305.303 74.5583 305.956 74.1821 306.52C73.8059 307.072 73.2792 307.51 72.6021 307.837C71.9374 308.15 71.1788 308.307 70.3261 308.307Z" fill="#424242"/>
<path d="M81.3595 308.307C80.6322 308.307 79.9738 308.15 79.3845 307.837C78.7951 307.523 78.3248 307.078 77.9737 306.501C77.6226 305.924 77.447 305.241 77.447 304.451V298.093H78.5756V304.394C78.5756 304.984 78.701 305.492 78.9518 305.918C79.2026 306.332 79.5349 306.651 79.9487 306.877C80.3751 307.09 80.8453 307.197 81.3595 307.197C81.8862 307.197 82.3564 307.09 82.7702 306.877C83.1966 306.651 83.5351 306.332 83.7859 305.918C84.0367 305.492 84.1621 304.984 84.1621 304.394V298.093H85.2907V304.451C85.2907 305.241 85.1152 305.924 84.7641 306.501C84.4129 307.078 83.9427 307.523 83.3533 307.837C82.7639 308.15 82.0993 308.307 81.3595 308.307Z" fill="#424242"/>
<path d="M88.4181 308.081V298.093H89.5467V299.955L89.3398 299.786C89.553 299.222 89.9167 298.776 90.4308 298.45C90.9575 298.124 91.5782 297.961 92.293 297.961H92.9325V299.09H92.1613C91.3462 299.09 90.7067 299.353 90.2427 299.88C89.7787 300.394 89.5467 301.09 89.5467 301.968V308.081H88.4181Z" fill="#424242"/>
<path d="M97.6513 308.307C97.0243 308.307 96.4662 308.188 95.9772 307.949C95.4881 307.711 95.0994 307.379 94.811 306.952C94.5226 306.526 94.3784 306.037 94.3784 305.485C94.3784 304.996 94.4849 304.539 94.6981 304.112C94.9113 303.686 95.2561 303.322 95.7327 303.021C96.2092 302.708 96.8299 302.488 97.5948 302.363L101.639 301.686V302.739L97.8958 303.36C97.0431 303.498 96.4412 303.755 96.09 304.131C95.7389 304.507 95.5634 304.946 95.5634 305.448C95.5634 305.987 95.764 306.426 96.1653 306.764C96.5791 307.103 97.0995 307.272 97.7265 307.272C98.4538 307.272 99.0871 307.109 99.6263 306.783C100.165 306.445 100.586 306.006 100.887 305.466C101.187 304.915 101.338 304.313 101.338 303.661V301.836C101.338 301.021 101.1 300.375 100.623 299.899C100.147 299.41 99.5009 299.165 98.6858 299.165H95.2812V298.093H98.6858C99.4633 298.093 100.134 298.244 100.698 298.544C101.263 298.845 101.695 299.278 101.996 299.842C102.31 300.394 102.467 301.059 102.467 301.836V308.081H101.338V305.993L101.47 306.087C101.307 306.488 101.037 306.858 100.661 307.197C100.285 307.523 99.8395 307.793 99.3253 308.006C98.8237 308.206 98.2657 308.307 97.6513 308.307Z" fill="#424242"/>
<path d="M109.021 308.194C108.194 308.194 107.554 307.962 107.103 307.498C106.651 307.021 106.426 306.332 106.426 305.429V299.165H104.545V298.093H105.259C105.636 298.093 105.924 297.98 106.125 297.754C106.325 297.529 106.426 297.222 106.426 296.833V295.761H107.554V298.093H109.736V299.165H107.554V305.429C107.554 305.705 107.592 305.974 107.667 306.238C107.755 306.501 107.918 306.714 108.156 306.877C108.394 307.04 108.739 307.122 109.191 307.122C109.291 307.122 109.41 307.115 109.548 307.103C109.698 307.09 109.818 307.078 109.905 307.065V308.081C109.767 308.119 109.611 308.144 109.435 308.156C109.26 308.181 109.122 308.194 109.021 308.194Z" fill="#424242"/>
<path d="M126.474 308.194C126.11 308.194 125.79 308.163 125.514 308.1C125.238 308.037 124.975 307.918 124.724 307.742C124.473 307.567 124.204 307.31 123.915 306.971C123.627 306.62 123.282 306.169 122.881 305.617L119.589 300.952L117.144 303.698V308.081H115.921V294.068H117.144V302.476L116.787 302.306L124.16 294.068H125.74L120.059 300.444L120.116 299.579L124.348 305.561C124.599 305.924 124.818 306.219 125.006 306.445C125.207 306.67 125.42 306.84 125.646 306.952C125.872 307.053 126.148 307.103 126.474 307.103H126.737V308.194H126.474Z" fill="#424242"/>
<path d="M131.266 308.307C130.639 308.307 130.081 308.188 129.592 307.949C129.103 307.711 128.715 307.379 128.426 306.952C128.138 306.526 127.993 306.037 127.993 305.485C127.993 304.996 128.1 304.539 128.313 304.112C128.526 303.686 128.871 303.322 129.348 303.021C129.824 302.708 130.445 302.488 131.21 302.363L135.254 301.686V302.739L131.511 303.36C130.658 303.498 130.056 303.755 129.705 304.131C129.354 304.507 129.179 304.946 129.179 305.448C129.179 305.987 129.379 306.426 129.78 306.764C130.194 307.103 130.715 307.272 131.342 307.272C132.069 307.272 132.702 307.109 133.241 306.783C133.781 306.445 134.201 306.006 134.502 305.466C134.803 304.915 134.953 304.313 134.953 303.661V301.836C134.953 301.021 134.715 300.375 134.238 299.899C133.762 299.41 133.116 299.165 132.301 299.165H128.896V298.093H132.301C133.078 298.093 133.749 298.244 134.314 298.544C134.878 298.845 135.311 299.278 135.611 299.842C135.925 300.394 136.082 301.059 136.082 301.836V308.081H134.953V305.993L135.085 306.087C134.922 306.488 134.652 306.858 134.276 307.197C133.9 307.523 133.455 307.793 132.94 308.006C132.439 308.206 131.881 308.307 131.266 308.307Z" fill="#424242"/>
<path d="M144.193 308.307C143.278 308.307 142.457 308.087 141.729 307.648C141.014 307.197 140.481 306.583 140.13 305.805L140.318 305.542V308.081H139.19V293.842H140.318V300.614L140.13 300.256C140.507 299.529 141.046 298.952 141.748 298.526C142.463 298.087 143.278 297.867 144.193 297.867C145.134 297.867 145.974 298.093 146.714 298.544C147.454 298.996 148.037 299.617 148.463 300.407C148.889 301.197 149.103 302.087 149.103 303.078C149.103 304.068 148.889 304.959 148.463 305.749C148.037 306.539 147.454 307.166 146.714 307.63C145.974 308.081 145.134 308.307 144.193 308.307ZM144.156 307.178C144.87 307.178 145.51 307.003 146.074 306.651C146.639 306.288 147.084 305.799 147.41 305.184C147.736 304.557 147.899 303.855 147.899 303.078C147.899 302.3 147.736 301.604 147.41 300.99C147.084 300.375 146.639 299.893 146.074 299.541C145.51 299.178 144.87 298.996 144.156 298.996C143.441 298.996 142.795 299.178 142.218 299.541C141.641 299.893 141.184 300.375 140.845 300.99C140.507 301.604 140.337 302.3 140.337 303.078C140.337 303.855 140.507 304.557 140.845 305.184C141.184 305.799 141.641 306.288 142.218 306.651C142.795 307.003 143.441 307.178 144.156 307.178Z" fill="#424242"/>
<path d="M154.668 308.307C154.041 308.307 153.483 308.188 152.994 307.949C152.505 307.711 152.117 307.379 151.828 306.952C151.54 306.526 151.396 306.037 151.396 305.485C151.396 304.996 151.502 304.539 151.715 304.112C151.928 303.686 152.273 303.322 152.75 303.021C153.226 302.708 153.847 302.488 154.612 302.363L158.656 301.686V302.739L154.913 303.36C154.06 303.498 153.458 303.755 153.107 304.131C152.756 304.507 152.581 304.946 152.581 305.448C152.581 305.987 152.781 306.426 153.182 306.764C153.596 307.103 154.117 307.272 154.744 307.272C155.471 307.272 156.104 307.109 156.643 306.783C157.183 306.445 157.603 306.006 157.904 305.466C158.205 304.915 158.355 304.313 158.355 303.661V301.836C158.355 301.021 158.117 300.375 157.64 299.899C157.164 299.41 156.518 299.165 155.703 299.165H152.298V298.093H155.703C156.48 298.093 157.151 298.244 157.716 298.544C158.28 298.845 158.713 299.278 159.013 299.842C159.327 300.394 159.484 301.059 159.484 301.836V308.081H158.355V305.993L158.487 306.087C158.324 306.488 158.054 306.858 157.678 307.197C157.302 307.523 156.857 307.793 156.342 308.006C155.841 308.206 155.283 308.307 154.668 308.307Z" fill="#424242"/>
<path d="M162.592 308.081V298.093H163.72V299.955L163.514 299.786C163.727 299.222 164.09 298.776 164.605 298.45C165.131 298.124 165.752 297.961 166.467 297.961H167.106V299.09H166.335C165.52 299.09 164.88 299.353 164.416 299.88C163.952 300.394 163.72 301.09 163.72 301.968V308.081H162.592Z" fill="#424242"/>
<path d="M172.277 308.081V294.068H173.312L178.541 301.855H178.033L183.281 294.068H184.315V308.081H183.093V295.855L183.394 296.024L178.315 303.604H178.259L173.18 296.024L173.5 295.855V308.081H172.277Z" fill="#424242"/>
<path d="M190.488 308.307C189.861 308.307 189.303 308.188 188.814 307.949C188.325 307.711 187.936 307.379 187.648 306.952C187.359 306.526 187.215 306.037 187.215 305.485C187.215 304.996 187.322 304.539 187.535 304.112C187.748 303.686 188.093 303.322 188.569 303.021C189.046 302.708 189.666 302.488 190.431 302.363L194.476 301.686V302.739L190.732 303.36C189.88 303.498 189.278 303.755 188.927 304.131C188.576 304.507 188.4 304.946 188.4 305.448C188.4 305.987 188.601 306.426 189.002 306.764C189.416 307.103 189.936 307.272 190.563 307.272C191.29 307.272 191.924 307.109 192.463 306.783C193.002 306.445 193.422 306.006 193.723 305.466C194.024 304.915 194.175 304.313 194.175 303.661V301.836C194.175 301.021 193.936 300.375 193.46 299.899C192.983 299.41 192.337 299.165 191.522 299.165H188.118V298.093H191.522C192.3 298.093 192.971 298.244 193.535 298.544C194.099 298.845 194.532 299.278 194.833 299.842C195.146 300.394 195.303 301.059 195.303 301.836V308.081H194.175V305.993L194.306 306.087C194.143 306.488 193.874 306.858 193.497 307.197C193.121 307.523 192.676 307.793 192.162 308.006C191.66 308.206 191.102 308.307 190.488 308.307Z" fill="#424242"/>
<path d="M198.411 308.081V293.842H199.54V298.093H202.493C203.271 298.093 203.935 298.244 204.487 298.544C205.051 298.845 205.484 299.278 205.785 299.842C206.098 300.394 206.255 301.059 206.255 301.836V308.081H205.126V301.836C205.126 301.021 204.888 300.375 204.412 299.899C203.948 299.41 203.308 299.165 202.493 299.165H199.54V308.081H198.411Z" fill="#424242"/>
<path d="M212.035 308.307C211.408 308.307 210.85 308.188 210.361 307.949C209.871 307.711 209.483 307.379 209.194 306.952C208.906 306.526 208.762 306.037 208.762 305.485C208.762 304.996 208.868 304.539 209.081 304.112C209.295 303.686 209.639 303.322 210.116 303.021C210.593 302.708 211.213 302.488 211.978 302.363L216.022 301.686V302.739L212.279 303.36C211.426 303.498 210.824 303.755 210.473 304.131C210.122 304.507 209.947 304.946 209.947 305.448C209.947 305.987 210.147 306.426 210.549 306.764C210.962 307.103 211.483 307.272 212.11 307.272C212.837 307.272 213.47 307.109 214.01 306.783C214.549 306.445 214.969 306.006 215.27 305.466C215.571 304.915 215.721 304.313 215.721 303.661V301.836C215.721 301.021 215.483 300.375 215.007 299.899C214.53 299.41 213.884 299.165 213.069 299.165H209.665V298.093H213.069C213.847 298.093 214.517 298.244 215.082 298.544C215.646 298.845 216.079 299.278 216.38 299.842C216.693 300.394 216.85 301.059 216.85 301.836V308.081H215.721V305.993L215.853 306.087C215.69 306.488 215.42 306.858 215.044 307.197C214.668 307.523 214.223 307.793 213.709 308.006C213.207 308.206 212.649 308.307 212.035 308.307Z" fill="#424242"/>
<path d="M223.325 308.307C222.397 308.307 221.582 308.075 220.88 307.611C220.178 307.147 219.663 306.514 219.337 305.711L220.315 305.26C220.629 305.874 221.049 306.363 221.576 306.727C222.102 307.078 222.685 307.253 223.325 307.253C223.977 307.253 224.523 307.097 224.961 306.783C225.413 306.457 225.639 306.031 225.639 305.504C225.639 305.178 225.551 304.902 225.375 304.676C225.212 304.451 224.999 304.269 224.736 304.131C224.472 303.981 224.19 303.868 223.889 303.792L222.347 303.36C221.482 303.122 220.842 302.77 220.428 302.306C220.027 301.842 219.826 301.297 219.826 300.67C219.826 300.106 219.971 299.617 220.259 299.203C220.547 298.776 220.936 298.45 221.425 298.225C221.914 297.986 222.453 297.867 223.043 297.867C223.87 297.867 224.623 298.08 225.3 298.507C225.977 298.933 226.454 299.51 226.73 300.237L225.714 300.708C225.451 300.143 225.081 299.704 224.604 299.391C224.128 299.065 223.601 298.902 223.024 298.902C222.422 298.902 221.933 299.065 221.557 299.391C221.181 299.704 220.993 300.106 220.993 300.595C220.993 300.908 221.068 301.172 221.218 301.385C221.369 301.585 221.563 301.755 221.801 301.893C222.052 302.018 222.309 302.118 222.573 302.194L224.247 302.683C225.062 302.908 225.689 303.266 226.128 303.755C226.579 304.244 226.805 304.821 226.805 305.485C226.805 306.024 226.654 306.507 226.353 306.934C226.052 307.36 225.639 307.699 225.112 307.949C224.585 308.188 223.99 308.307 223.325 308.307Z" fill="#424242"/>
<path d="M229.51 308.081V298.093H230.638V308.081H229.51ZM229.51 296.137V294.068H230.638V296.137H229.51Z" fill="#424242"/>
<path d="M237.102 308.307C236.174 308.307 235.359 308.075 234.656 307.611C233.954 307.147 233.44 306.514 233.114 305.711L234.092 305.26C234.406 305.874 234.826 306.363 235.352 306.727C235.879 307.078 236.462 307.253 237.102 307.253C237.754 307.253 238.299 307.097 238.738 306.783C239.19 306.457 239.415 306.031 239.415 305.504C239.415 305.178 239.328 304.902 239.152 304.676C238.989 304.451 238.776 304.269 238.512 304.131C238.249 303.981 237.967 303.868 237.666 303.792L236.124 303.36C235.258 303.122 234.619 302.77 234.205 302.306C233.804 301.842 233.603 301.297 233.603 300.67C233.603 300.106 233.747 299.617 234.036 299.203C234.324 298.776 234.713 298.45 235.202 298.225C235.691 297.986 236.23 297.867 236.82 297.867C237.647 297.867 238.4 298.08 239.077 298.507C239.754 298.933 240.23 299.51 240.506 300.237L239.491 300.708C239.227 300.143 238.857 299.704 238.381 299.391C237.904 299.065 237.378 298.902 236.801 298.902C236.199 298.902 235.71 299.065 235.334 299.391C234.957 299.704 234.769 300.106 234.769 300.595C234.769 300.908 234.845 301.172 234.995 301.385C235.145 301.585 235.34 301.755 235.578 301.893C235.829 302.018 236.086 302.118 236.349 302.194L238.023 302.683C238.838 302.908 239.465 303.266 239.904 303.755C240.356 304.244 240.582 304.821 240.582 305.485C240.582 306.024 240.431 306.507 240.13 306.934C239.829 307.36 239.415 307.699 238.889 307.949C238.362 308.188 237.766 308.307 237.102 308.307Z" fill="#424242"/>
<path d="M245.285 308.081L241.861 298.093H243.122L246.112 307.141H245.623L248.332 298.093H249.479L252.188 307.141H251.699L254.709 298.093H255.969L252.527 308.081H251.379L248.765 299.353H249.047L246.432 308.081H245.285Z" fill="#424242"/>
<path d="M260.327 308.307C259.7 308.307 259.141 308.188 258.652 307.949C258.163 307.711 257.775 307.379 257.486 306.952C257.198 306.526 257.054 306.037 257.054 305.485C257.054 304.996 257.16 304.539 257.373 304.112C257.587 303.686 257.931 303.322 258.408 303.021C258.884 302.708 259.505 302.488 260.27 302.363L264.314 301.686V302.739L260.571 303.36C259.718 303.498 259.116 303.755 258.765 304.131C258.414 304.507 258.239 304.946 258.239 305.448C258.239 305.987 258.439 306.426 258.841 306.764C259.254 307.103 259.775 307.272 260.402 307.272C261.129 307.272 261.762 307.109 262.302 306.783C262.841 306.445 263.261 306.006 263.562 305.466C263.863 304.915 264.013 304.313 264.013 303.661V301.836C264.013 301.021 263.775 300.375 263.298 299.899C262.822 299.41 262.176 299.165 261.361 299.165H257.956V298.093H261.361C262.139 298.093 262.809 298.244 263.374 298.544C263.938 298.845 264.371 299.278 264.672 299.842C264.985 300.394 265.142 301.059 265.142 301.836V308.081H264.013V305.993L264.145 306.087C263.982 306.488 263.712 306.858 263.336 307.197C262.96 307.523 262.515 307.793 262.001 308.006C261.499 308.206 260.941 308.307 260.327 308.307Z" fill="#424242"/>
<path d="M270.921 308.081V295.196H267.009V294.068H276.037V295.196H272.144V308.081H270.921Z" fill="#424242"/>
<path d="M281.33 308.307C280.327 308.307 279.436 308.081 278.659 307.63C277.882 307.166 277.267 306.539 276.816 305.749C276.377 304.946 276.157 304.049 276.157 303.059C276.157 302.068 276.37 301.184 276.797 300.407C277.223 299.617 277.8 298.996 278.527 298.544C279.255 298.093 280.07 297.867 280.973 297.867C281.662 297.867 282.283 297.993 282.835 298.244C283.399 298.494 283.882 298.845 284.283 299.297C284.697 299.736 285.01 300.244 285.224 300.82C285.449 301.385 285.562 301.98 285.562 302.607C285.562 302.733 285.556 302.864 285.543 303.002C285.531 303.14 285.512 303.285 285.487 303.435H276.816V302.4H284.847L284.34 302.795C284.415 302.068 284.308 301.416 284.02 300.839C283.731 300.25 283.318 299.786 282.778 299.447C282.252 299.096 281.65 298.921 280.973 298.921C280.295 298.921 279.675 299.102 279.11 299.466C278.546 299.817 278.101 300.306 277.775 300.933C277.449 301.548 277.298 302.263 277.324 303.078C277.298 303.893 277.455 304.614 277.794 305.241C278.145 305.868 278.628 306.363 279.242 306.727C279.857 307.078 280.553 307.253 281.33 307.253H284.866V308.307H281.33Z" fill="#424242"/>
<path d="M288.254 308.081V293.842H289.382V304.018L288.799 303.962L294.706 298.093H296.248L292.223 302.118L296.624 308.081H295.213L291.038 302.476L291.79 302.495L289.081 305.278L289.382 304.507V308.081H288.254Z" fill="#424242"/>
<path d="M298.485 308.081V298.093H302.567C303.344 298.093 304.009 298.244 304.561 298.544C305.125 298.845 305.558 299.278 305.859 299.842C306.172 300.394 306.329 301.059 306.329 301.836V308.081H305.2V301.836C305.2 301.021 304.962 300.375 304.486 299.899C304.022 299.41 303.382 299.165 302.567 299.165H299.614V308.081H298.485Z" fill="#424242"/>
<path d="M313.895 308.307C312.942 308.307 312.083 308.081 311.319 307.63C310.554 307.178 309.945 306.557 309.494 305.767C309.055 304.965 308.836 304.068 308.836 303.078C308.836 302.087 309.055 301.197 309.494 300.407C309.945 299.617 310.547 298.996 311.3 298.544C312.065 298.093 312.93 297.867 313.895 297.867C314.848 297.867 315.707 298.093 316.472 298.544C317.237 298.996 317.839 299.617 318.278 300.407C318.717 301.184 318.936 302.074 318.936 303.078C318.936 304.081 318.711 304.977 318.259 305.767C317.808 306.557 317.2 307.178 316.435 307.63C315.682 308.081 314.836 308.307 313.895 308.307ZM313.895 307.197C314.61 307.197 315.256 307.021 315.833 306.67C316.422 306.307 316.886 305.811 317.225 305.184C317.563 304.557 317.733 303.855 317.733 303.078C317.733 302.3 317.563 301.604 317.225 300.99C316.886 300.375 316.429 299.886 315.852 299.523C315.275 299.159 314.623 298.977 313.895 298.977C313.168 298.977 312.51 299.159 311.92 299.523C311.344 299.874 310.886 300.363 310.547 300.99C310.209 301.604 310.039 302.3 310.039 303.078C310.039 303.855 310.209 304.557 310.547 305.184C310.898 305.811 311.362 306.307 311.939 306.67C312.516 307.021 313.168 307.197 313.895 307.197Z" fill="#424242"/>
<path d="M323.924 308.194C323.172 308.194 322.602 308.012 322.213 307.648C321.837 307.285 321.648 306.777 321.648 306.125V293.842H322.777V306.068C322.777 306.821 323.191 307.197 324.018 307.197H324.188V308.194H323.924Z" fill="#424242"/>
<path d="M331.162 308.307C330.209 308.307 329.35 308.081 328.585 307.63C327.82 307.178 327.212 306.557 326.761 305.767C326.322 304.965 326.102 304.068 326.102 303.078C326.102 302.087 326.322 301.197 326.761 300.407C327.212 299.617 327.814 298.996 328.567 298.544C329.331 298.093 330.197 297.867 331.162 297.867C332.115 297.867 332.974 298.093 333.739 298.544C334.504 298.996 335.106 299.617 335.545 300.407C335.984 301.184 336.203 302.074 336.203 303.078C336.203 304.081 335.978 304.977 335.526 305.767C335.075 306.557 334.467 307.178 333.702 307.63C332.949 308.081 332.103 308.307 331.162 308.307ZM331.162 307.197C331.877 307.197 332.523 307.021 333.1 306.67C333.689 306.307 334.153 305.811 334.492 305.184C334.83 304.557 334.999 303.855 334.999 303.078C334.999 302.3 334.83 301.604 334.492 300.99C334.153 300.375 333.695 299.886 333.118 299.523C332.542 299.159 331.89 298.977 331.162 298.977C330.435 298.977 329.777 299.159 329.187 299.523C328.61 299.874 328.153 300.363 327.814 300.99C327.476 301.604 327.306 302.3 327.306 303.078C327.306 303.855 327.476 304.557 327.814 305.184C328.165 305.811 328.629 306.307 329.206 306.67C329.783 307.021 330.435 307.197 331.162 307.197Z" fill="#424242"/>
<path d="M340.081 312.219V311.109H343.806C344.834 311.109 345.649 310.846 346.251 310.319C346.853 309.805 347.154 309.103 347.154 308.213V305.166L347.361 305.429C347.01 306.206 346.477 306.821 345.762 307.272C345.047 307.711 344.251 307.931 343.373 307.931C342.445 307.931 341.611 307.705 340.871 307.253C340.132 306.802 339.549 306.194 339.122 305.429C338.708 304.664 338.501 303.817 338.501 302.89C338.501 301.962 338.708 301.121 339.122 300.369C339.549 299.604 340.125 298.996 340.853 298.544C341.593 298.093 342.433 297.867 343.373 297.867C344.251 297.867 345.041 298.087 345.743 298.526C346.445 298.952 346.985 299.529 347.361 300.256L347.154 300.614V298.093H348.283V308.213C348.283 309.015 348.094 309.717 347.718 310.319C347.355 310.921 346.834 311.385 346.157 311.711C345.492 312.05 344.709 312.219 343.806 312.219H340.081ZM343.411 306.802C344.113 306.802 344.74 306.626 345.292 306.275C345.856 305.924 346.301 305.454 346.627 304.865C346.953 304.263 347.116 303.604 347.116 302.89C347.116 302.175 346.953 301.523 346.627 300.933C346.301 300.344 345.856 299.874 345.292 299.523C344.74 299.171 344.113 298.996 343.411 298.996C342.696 298.996 342.057 299.171 341.492 299.523C340.928 299.874 340.489 300.344 340.176 300.933C339.862 301.523 339.705 302.175 339.705 302.89C339.705 303.604 339.862 304.263 340.176 304.865C340.489 305.454 340.922 305.924 341.473 306.275C342.038 306.626 342.684 306.802 343.411 306.802Z" fill="#424242"/>
<path d="M351.388 308.081V298.093H352.516V308.081H351.388ZM351.388 296.137V294.068H352.516V296.137H351.388Z" fill="#424242"/>
<path d="M358.924 308.081V294.068H363.626C364.517 294.068 365.3 294.243 365.978 294.594C366.655 294.946 367.181 295.441 367.558 296.08C367.946 296.72 368.141 297.46 368.141 298.3C368.141 299.14 367.946 299.88 367.558 300.52C367.181 301.146 366.655 301.642 365.978 302.005C365.313 302.357 364.529 302.532 363.626 302.532H360.147V308.081H358.924ZM360.147 301.404H363.664C364.303 301.404 364.868 301.278 365.357 301.027C365.846 300.764 366.228 300.4 366.504 299.936C366.78 299.46 366.918 298.908 366.918 298.281C366.918 297.654 366.78 297.115 366.504 296.663C366.228 296.2 365.846 295.842 365.357 295.591C364.868 295.328 364.303 295.196 363.664 295.196H360.147V301.404Z" fill="#424242"/>
<path d="M375.03 308.307C374.027 308.307 373.136 308.081 372.359 307.63C371.581 307.166 370.967 306.539 370.516 305.749C370.077 304.946 369.857 304.049 369.857 303.059C369.857 302.068 370.07 301.184 370.497 300.407C370.923 299.617 371.5 298.996 372.227 298.544C372.955 298.093 373.77 297.867 374.672 297.867C375.362 297.867 375.983 297.993 376.535 298.244C377.099 298.494 377.582 298.845 377.983 299.297C378.397 299.736 378.71 300.244 378.924 300.82C379.149 301.385 379.262 301.98 379.262 302.607C379.262 302.733 379.256 302.864 379.243 303.002C379.231 303.14 379.212 303.285 379.187 303.435H370.516V302.4H378.547L378.039 302.795C378.115 302.068 378.008 301.416 377.72 300.839C377.431 300.25 377.017 299.786 376.478 299.447C375.952 299.096 375.35 298.921 374.672 298.921C373.995 298.921 373.375 299.102 372.81 299.466C372.246 299.817 371.801 300.306 371.475 300.933C371.149 301.548 370.998 302.263 371.023 303.078C370.998 303.893 371.155 304.614 371.494 305.241C371.845 305.868 372.328 306.363 372.942 306.727C373.556 307.078 374.252 307.253 375.03 307.253H378.566V308.307H375.03Z" fill="#424242"/>
<path d="M381.954 308.081V298.093H386.035C386.813 298.093 387.477 298.244 388.029 298.544C388.594 298.845 389.026 299.278 389.327 299.842C389.641 300.394 389.797 301.059 389.797 301.836V308.081H388.669V301.836C388.669 301.021 388.431 300.375 387.954 299.899C387.49 299.41 386.85 299.165 386.035 299.165H383.082V308.081H381.954Z" fill="#424242"/>
<path d="M397.213 308.307C396.285 308.307 395.445 308.081 394.693 307.63C393.953 307.166 393.37 306.539 392.944 305.749C392.517 304.959 392.304 304.068 392.304 303.078C392.304 302.087 392.517 301.197 392.944 300.407C393.37 299.617 393.953 298.996 394.693 298.544C395.445 298.093 396.285 297.867 397.213 297.867C398.129 297.867 398.944 298.087 399.659 298.526C400.373 298.952 400.913 299.529 401.276 300.256L401.088 300.614V293.842H402.217V308.081H401.088V305.542L401.276 305.805C400.925 306.583 400.386 307.197 399.659 307.648C398.944 308.087 398.129 308.307 397.213 308.307ZM397.251 307.178C397.978 307.178 398.624 307.003 399.188 306.651C399.765 306.288 400.223 305.799 400.562 305.184C400.9 304.557 401.069 303.855 401.069 303.078C401.069 302.3 400.9 301.604 400.562 300.99C400.223 300.375 399.765 299.893 399.188 299.541C398.624 299.178 397.978 298.996 397.251 298.996C396.536 298.996 395.897 299.178 395.332 299.541C394.768 299.893 394.323 300.375 393.997 300.99C393.671 301.604 393.508 302.3 393.508 303.078C393.508 303.855 393.671 304.557 393.997 305.184C394.323 305.799 394.768 306.288 395.332 306.651C395.897 307.003 396.536 307.178 397.251 307.178Z" fill="#424242"/>
<path d="M405.337 308.081V298.093H406.466V308.081H405.337ZM405.337 296.137V294.068H406.466V296.137H405.337Z" fill="#424242"/>
<path d="M414.058 308.307C413.13 308.307 412.29 308.081 411.537 307.63C410.797 307.166 410.214 306.539 409.788 305.749C409.362 304.959 409.148 304.068 409.148 303.078C409.148 302.087 409.362 301.197 409.788 300.407C410.214 299.617 410.797 298.996 411.537 298.544C412.29 298.093 413.13 297.867 414.058 297.867C414.973 297.867 415.788 298.087 416.503 298.526C417.218 298.952 417.757 299.529 418.121 300.256L417.933 300.614V293.842H419.061V308.081H417.933V305.542L418.121 305.805C417.769 306.583 417.23 307.197 416.503 307.648C415.788 308.087 414.973 308.307 414.058 308.307ZM414.095 307.178C414.823 307.178 415.468 307.003 416.033 306.651C416.61 306.288 417.067 305.799 417.406 305.184C417.744 304.557 417.914 303.855 417.914 303.078C417.914 302.3 417.744 301.604 417.406 300.99C417.067 300.375 416.61 299.893 416.033 299.541C415.468 299.178 414.823 298.996 414.095 298.996C413.381 298.996 412.741 299.178 412.177 299.541C411.612 299.893 411.167 300.375 410.841 300.99C410.515 301.604 410.352 302.3 410.352 303.078C410.352 303.855 410.515 304.557 410.841 305.184C411.167 305.799 411.612 306.288 412.177 306.651C412.741 307.003 413.381 307.178 414.095 307.178Z" fill="#424242"/>
<path d="M422.182 308.081V298.093H423.31V308.081H422.182ZM422.182 296.137V294.068H423.31V296.137H422.182Z" fill="#424242"/>
<path d="M426.406 308.081V293.842H427.535V304.018L426.952 303.962L432.858 298.093H434.401L430.375 302.118L434.777 308.081H433.366L429.19 302.476L429.943 302.495L427.234 305.278L427.535 304.507V308.081H426.406Z" fill="#424242"/>
<path d="M439.497 308.307C438.87 308.307 438.312 308.188 437.823 307.949C437.334 307.711 436.945 307.379 436.657 306.952C436.368 306.526 436.224 306.037 436.224 305.485C436.224 304.996 436.331 304.539 436.544 304.112C436.757 303.686 437.102 303.322 437.578 303.021C438.055 302.708 438.676 302.488 439.441 302.363L443.485 301.686V302.739L439.742 303.36C438.889 303.498 438.287 303.755 437.936 304.131C437.585 304.507 437.409 304.946 437.409 305.448C437.409 305.987 437.61 306.426 438.011 306.764C438.425 307.103 438.945 307.272 439.572 307.272C440.3 307.272 440.933 307.109 441.472 306.783C442.011 306.445 442.431 306.006 442.732 305.466C443.033 304.915 443.184 304.313 443.184 303.661V301.836C443.184 301.021 442.946 300.375 442.469 299.899C441.992 299.41 441.347 299.165 440.532 299.165H437.127V298.093H440.532C441.309 298.093 441.98 298.244 442.544 298.544C443.109 298.845 443.541 299.278 443.842 299.842C444.156 300.394 444.312 301.059 444.312 301.836V308.081H443.184V305.993L443.315 306.087C443.152 306.488 442.883 306.858 442.507 307.197C442.13 307.523 441.685 307.793 441.171 308.006C440.67 308.206 440.112 308.307 439.497 308.307Z" fill="#424242"/>
<path d="M447.421 308.081V298.093H451.502C452.28 298.093 452.944 298.244 453.496 298.544C454.06 298.845 454.493 299.278 454.794 299.842C455.107 300.394 455.264 301.059 455.264 301.836V308.081H454.136V301.836C454.136 301.021 453.897 300.375 453.421 299.899C452.957 299.41 452.317 299.165 451.502 299.165H448.549V308.081H447.421Z" fill="#424242"/>
</svg>
